<?xml version="1.0" encoding="UTF-8"?>
<svg version="1.1" xmlns="http://www.w3.org/2000/svg" width="2100" height="650" viewBox="0 0 2100 650" fill="none">
<path d="M0 0 C5.13171478 2.42062018 7.96383811 5.77302432 10 11 C12.40608354 19.59407869 13.69144554 28.23318764 14.5625 37.09765625 C14.68616943 38.30704361 14.80983887 39.51643097 14.93725586 40.76246643 C16.22018671 53.63596174 17.16571316 66.52813393 18 79.4375 C18.08337616 80.71685425 18.16675232 81.9962085 18.25265503 83.31433105 C21.93286011 140.08519574 23.53734664 196.88912662 24.82503796 253.75706863 C25.38837645 278.6320735 26.01109528 303.49813645 27.02734375 328.359375 C27.08908374 329.88622295 27.08908374 329.88622295 27.152071 331.44391632 C27.58311933 341.98028799 28.06912909 352.49389619 29 363 C29.05153732 362.44339691 29.10307465 361.88679382 29.15617371 361.31332397 C29.31566486 359.59081948 29.47516609 357.86831592 29.63467407 356.14581299 C29.82751479 354.06293385 30.02028127 351.98004784 30.21298218 349.89715576 C30.76324865 343.95064581 31.31490876 338.00426996 31.86889648 332.05810547 C32.92932472 320.66167246 33.98310981 309.26497114 34.9853363 297.86325073 C35.4051234 293.09309416 35.83158733 288.32354376 36.25845337 283.55401611 C36.457705 281.30687049 36.65376509 279.05943907 36.84628296 276.81170654 C37.84822963 265.12750756 39.07246692 253.51636353 40.90234375 241.9296875 C41.12392906 240.45835861 41.12392906 240.45835861 41.34999084 238.95730591 C42.5476111 231.79988532 44.34006998 224.92967397 50 220 C54.20570619 219.12578017 57.93774713 219.50428199 61.8125 221.3125 C67.78862068 228.65459112 68.99573437 239.00083342 70.41796875 248.09375 C70.62447556 249.37415161 70.83098236 250.65455322 71.04374695 251.97375488 C73.77585566 269.18775525 75.85517869 286.49800235 77.97894287 303.79516602 C78.43013339 307.45389593 78.88883527 311.11166918 79.34754658 314.76946259 C79.79222126 318.32072788 80.23316324 321.87244846 80.67287254 325.42433167 C80.88124807 327.10530779 81.09056208 328.78616787 81.30086708 330.46690369 C81.59137363 332.7945582 81.87705113 335.12275536 82.16137695 337.45117188 C82.24702911 338.13052795 82.33268127 338.80988403 82.42092896 339.50982666 C82.88545689 343.36314288 83.08044146 347.11988802 83 351 C83.66 351 84.32 351 85 351 C85.05115967 349.94643311 85.10231934 348.89286621 85.1550293 347.80737305 C85.57559244 339.53103464 86.10558883 331.27490422 86.83203125 323.01953125 C86.9089621 322.14312485 86.98589294 321.26671844 87.06515503 320.36375427 C87.14484528 319.45617874 87.22453552 318.54860321 87.30664062 317.61352539 C89.26546344 295.28587108 90.75442792 272.93950025 92 250.5625 C92.04090256 249.8285564 92.08180511 249.09461281 92.12394714 248.3384285 C93.47134719 224.0946203 94.64904123 199.84301621 95.80740356 175.58956909 C102.07263622 44.43066542 102.07263622 44.43066542 115.75 31.375 C120.15388966 29.51181591 123.46948424 29.46465855 128 31 C136.29464091 37.82003808 137.77033005 51.34313211 139.6875 61.375 C140.0592334 63.31753662 140.0592334 63.31753662 140.43847656 65.29931641 C147.65326677 104.04664194 152.21053884 143.38044196 157.5085907 182.42905807 C160.00025322 200.79226829 162.49399681 219.14965756 165.5 237.4375 C165.67709 238.51525192 165.67709 238.51525192 165.85775757 239.61477661 C166.97901073 246.38799368 168.17034983 253.13139207 169.65039062 259.83618164 C170.04101129 262.25382893 170.05794972 264.55511199 170 267 C170.66 267 171.32 267 172 267 C172.05745895 266.20345505 172.11491791 265.4069101 172.17411804 264.58622742 C172.99830641 253.48113467 174.18556659 242.42990901 175.41918945 231.36401367 C175.6803525 229.0057649 175.93722403 226.64703672 176.18969727 224.2878418 C180.70509421 182.10785692 180.70509421 182.10785692 190.4375 172.625 C197.29177835 168.27838446 203.20331764 168.70419617 211 170 C216.6183369 171.4330025 222.10485796 173.32981173 227.59835815 175.17480469 C254.60931667 184.21731595 281.8913092 191.24804727 310 196 C310.89170898 196.15307617 311.78341797 196.30615234 312.70214844 196.46386719 C347.7736493 202.32008403 401.79595338 208.92270241 432.75 187.0625 C433.86755767 186.07925198 434.95416085 185.05921305 436 184 C436.80244141 183.23429687 436.80244141 183.23429687 437.62109375 182.453125 C447.86962376 171.71900379 450.43808108 155.9560365 450.36450195 141.64575195 C450.20131026 136.24976865 449.11504679 131.93510918 447 127 C447.16371094 127.56203125 447.32742188 128.1240625 447.49609375 128.703125 C448.02864997 131.13059056 448.09898681 133.26889681 448.0625 135.75 C448.05347656 136.54921875 448.04445313 137.3484375 448.03515625 138.171875 C448.02355469 138.77515625 448.01195313 139.3784375 448 140 C432.5677749 140.61637585 417.59160623 138.21140195 405.6875 127.5 C394.30076828 115.09107733 392.60072877 100.19219859 392.6875 84.0625 C392.68899048 83.37913574 392.69048096 82.69577148 392.6920166 81.99169922 C392.75727187 65.3214138 395.29808882 49.96740394 400 34 C404.67125753 35.55708584 406.04596319 39.46929075 408.57421875 43.53125 C414.66078531 52.53658363 421.00745276 57.62567972 430.75 62.375 C444.85755361 69.66792407 455.04667725 76.61500862 461 92 C461.433125 93.11375 461.86625 94.2275 462.3125 95.375 C465.16103321 110.39453873 462.9905401 124.16234496 459.53466797 138.79785156 C457.91315129 145.87601981 456.9519159 153.00219991 456.12719727 160.21313477 C455.37920018 166.38912601 453.96578658 172.09867859 452 178 C455.49204692 175.4769504 458.92669527 172.89363106 462.33203125 170.25585938 C463.84995514 169.11297288 465.42284406 168.04402665 467 166.984375 C475.03079293 160.9612803 476.84020707 154.59667142 479.37280273 145.17211914 C483.57146046 129.65134983 490.45681212 115.21376342 501 103 C501.7528125 102.11054688 502.505625 101.22109375 503.28125 100.3046875 C518.76741699 82.53802332 539.12268122 73.81283415 560.875 65.875 C561.72529785 65.55523193 562.5755957 65.23546387 563.45166016 64.90600586 C564.24878418 64.6250708 565.0459082 64.34413574 565.8671875 64.0546875 C566.56956543 63.80187012 567.27194336 63.54905273 567.99560547 63.28857422 C570.65521081 62.9056688 571.78605642 63.52576053 574 65 C578 70.33333333 578 70.33333333 578 73 C578.66 73 579.32 73 580 73 C581.485 68.05 581.485 68.05 583 63 C584.96362546 63.38881522 586.92716841 63.77805007 588.89038086 64.16894531 C590.66156449 64.52089536 592.43323073 64.87042367 594.20532227 65.21777344 C599.13580541 66.19272533 604.04108741 67.22758631 608.93359375 68.37890625 C630.26665428 73.32254831 647.96733141 73.08517985 669 67 C669.83241211 66.75991211 670.66482422 66.51982422 671.52246094 66.27246094 C674.60802641 65.37570703 677.69184812 64.47710989 680.76074219 63.5246582 C683.63013619 62.63910876 685.97566538 62 689 62 C678.68584287 95.03435679 657.55226024 127.08342337 635 153 C634.30801514 153.80147461 634.30801514 153.80147461 633.60205078 154.61914062 C617.54903614 173.10830634 595.80071342 190.04736367 570.58251953 192.20703125 C543.0503986 193.70305179 517.87522346 183.82766 495.9375 167.625 C495.24011719 167.11308105 494.54273437 166.60116211 493.82421875 166.07373047 C492.15337202 164.79385169 490.56724988 163.40482964 489 162 C489 158.48283697 489.82445585 157.62878252 492 155 C489.47483195 157.49565251 486.95570627 159.99732451 484.4375 162.5 C483.73302734 163.19609375 483.02855469 163.8921875 482.30273438 164.609375 C478.20583314 168.6873965 474.31497216 172.86893645 470.53930664 177.24511719 C447.49110108 203.52116819 409.71424001 215.03180666 375.98779297 217.8190918 C322.06182839 221.08426092 268.43655073 209.67883542 217.58349609 192.49169922 C216.91169312 192.26538315 216.23989014 192.03906708 215.54772949 191.80589294 C213.75228759 191.19807938 211.95975667 190.5816855 210.16748047 189.96459961 C207.11268678 189.03431675 204.15839474 188.44630139 201 188 C199.31061405 195.78760304 198.15616941 203.6010014 197.125 211.5 C196.95282959 212.79446045 196.78065918 214.0889209 196.60327148 215.42260742 C195.6711267 222.48893835 194.80899013 229.55996364 194.02734375 236.64453125 C192.56649078 249.84175676 191.06796991 262.96056215 188.5 276 C188.31058838 276.97751221 188.12117676 277.95502441 187.92602539 278.9621582 C184.71143024 294.35312763 184.71143024 294.35312763 179.375 299.5625 C175.29213326 302.03370882 172.83888947 302.3280603 168 302 C161.48212909 298.86102536 159.35072542 293.55641429 157 287 C152.46471852 272.77325393 150.17375453 257.88190204 147.78125 243.17578125 C147.63287752 242.26714073 147.48450504 241.35850021 147.33163643 240.42232513 C143.28933858 215.51895004 140.12710094 190.49583412 136.91564941 165.47460938 C135.49308735 154.39337023 134.0620314 143.31323966 132.62109375 132.234375 C132.46777966 131.05463608 132.31446556 129.87489716 132.15650558 128.65940857 C127.92332026 94.69566338 127.92332026 94.69566338 122 61 C108.90156205 74.09843795 115.14537467 137.65500522 114.3203125 155.36328125 C111.66078204 212.3375278 108.32151825 269.29941518 102 326 C101.89451843 326.95259705 101.78903687 327.90519409 101.68035889 328.88665771 C101.05824194 334.48358419 100.41649564 340.0777455 99.74658203 345.66915894 C99.54574185 347.34617843 99.34751467 349.02351366 99.15234375 350.70120239 C95.80969485 379.13983252 95.80969485 379.13983252 90.125 384.4375 C86.60964762 386.19517619 84.86125641 386.73938952 81 386 C75.7561123 383.37805615 74.77672894 379.19461843 72.95788574 373.99075317 C71.54560838 369.58127841 70.4978584 365.15647701 69.578125 360.62109375 C69.37141174 359.61396835 69.16469849 358.60684296 68.95172119 357.56919861 C66.01170841 342.6543642 64.11382468 327.55639085 62.0793457 312.49743652 C61.20304837 306.01874752 60.31514791 299.54166098 59.4220047 293.06527519 C59.11391858 290.81829421 58.81151272 288.57060083 58.50970459 286.32276917 C58.32404527 284.96523445 58.13820373 283.60772464 57.95214844 282.25024414 C57.79180115 281.0635463 57.63145386 279.87684845 57.46624756 278.65419006 C57.27680867 276.08544117 57.27680867 276.08544117 56 275 C55.93371399 275.96575455 55.86742798 276.93150909 55.7991333 277.92652893 C55.15968769 287.23018163 54.51312027 296.53331844 53.86034012 305.83604527 C53.52530891 310.61353695 53.19241541 315.39115322 52.86523438 320.16918945 C51.48653209 340.27876392 49.98392578 360.36116691 47.92578125 380.4140625 C47.8444268 381.21271288 47.76307236 382.01136326 47.67925262 382.83421516 C42.90394879 429.33556481 42.90394879 429.33556481 35 437 C31.51981019 439.52013745 28.19450396 439.36793894 24 439 C19.59493911 437.15602102 16.96482485 434.29815449 15 430 C7.98591333 407.2991383 7.63167617 381.94859122 6.0390625 358.40234375 C5.95306982 357.13981152 5.86707714 355.87727928 5.77847862 354.57648849 C3.79807591 325.19838101 2.61452671 295.79732008 1.5415228 266.37426025 C1.23284467 257.91837159 0.91115289 249.46297791 0.59012067 241.00755095 C0.51138958 238.9336549 0.43270264 236.85975718 0.35404968 234.78585815 C0.32848202 234.11187796 0.30291437 233.43789776 0.27657193 232.74349391 C0.10599823 228.2387726 -0.06122447 223.73393556 -0.22697449 219.22903442 C-0.73509684 205.48138708 -1.30954159 191.73974577 -2 178 C-2.95140859 182.10552458 -3.23225404 186.07204062 -3.41723633 190.27880859 C-3.45006494 190.99899611 -3.48289354 191.71918362 -3.51671696 192.46119499 C-3.58777226 194.02995503 -3.65707036 195.59879541 -3.72481918 197.16770172 C-3.83417899 199.69813313 -3.94822778 202.22831561 -4.06350708 204.75848389 C-4.2290293 208.39688745 -4.39291237 212.03535927 -4.55563354 215.67388916 C-14.16912281 429.87535506 -14.16912281 429.87535506 -31.625 446.5 C-37.09899779 448.93288791 -42.61108016 449.05445593 -48.34765625 447.26953125 C-55.54425813 443.97389114 -58.271323 438.91143199 -61.06793022 431.77578735 C-62.54404558 427.3797835 -63.12938916 423.0144531 -63.63110352 418.41796875 C-63.81025598 416.87836739 -63.81025598 416.87836739 -63.99302769 415.30766296 C-65.47515739 401.77514136 -66.11133269 388.17794949 -66.78788829 374.58673096 C-66.98473911 370.67530345 -67.19237285 366.76444633 -67.39881897 362.85351562 C-67.79018738 355.41208367 -68.173368 347.97025701 -68.55295044 340.52821541 C-69.30311316 325.82450321 -70.06871581 311.12158429 -70.83825755 296.41887474 C-70.92265454 294.80617329 -71.00697921 293.19346806 -71.09123158 291.58075905 C-72.28949656 268.65068399 -73.56545751 245.72685052 -74.99121404 222.8097229 C-75.1142445 220.82863926 -75.23616626 218.84748686 -75.35806084 216.86633301 C-74.21654846 175.97726983 -74.21654846 175.97726983 -83 139 C-87.02527751 159.21397922 -90.6684748 179.45206446 -93.93359375 199.8046875 C-94.37803358 202.554541 -94.8240378 205.30414013 -95.27003479 208.05374146 C-96.31346135 214.49148404 -97.35242548 220.92993692 -98.38935572 227.36872876 C-99.66100547 235.26451099 -100.9364375 243.15968051 -102.21289062 251.0546875 C-102.32632726 251.75633986 -102.43976389 252.45799222 -102.556638 253.18090677 C-104.83574186 267.27622669 -107.12344615 281.37013337 -109.42293549 295.46214294 C-109.7966676 297.75341324 -110.16993276 300.04475978 -110.54264069 302.3361969 C-111.49206455 308.17223995 -112.44976362 314.00675759 -113.42433357 319.83865738 C-113.69811109 321.48405107 -113.96901243 323.12992704 -114.23644829 324.77636337 C-115.62384777 333.30163052 -117.28921703 341.71930198 -119.38452148 350.10107422 C-119.66096921 351.25817996 -119.66096921 351.25817996 -119.94300175 352.43866158 C-121.67042024 359.05352698 -124.69004 364.36004572 -129.1875 369.5 C-133.43598034 371.76585618 -137.29045871 371.59939616 -142 371 C-146.01002518 369.75243661 -147.53006411 367.51391024 -149.5625 364 C-151.73578932 359.19500725 -152.94437496 354.45260036 -154 349.31640625 C-154.17245743 348.48428116 -154.34491486 347.65215607 -154.52259827 346.79481506 C-156.14187818 338.72318952 -157.22305545 330.62118945 -158.15234375 322.44512939 C-158.44868174 319.83916914 -158.75643937 317.2347436 -159.06640625 314.63037109 C-160.05121665 306.32181777 -160.99993397 298.00922831 -161.94203186 289.69573975 C-164.25604949 269.31734957 -166.59039558 249.05636243 -171 229 C-171.19561523 228.10861328 -171.39123047 227.21722656 -171.59277344 226.29882812 C-175.07533004 210.89677248 -180.22804251 190.01203921 -194.25 180.9375 C-209.64153462 172.28745755 -230.86144162 180.14787194 -246.5 184.3125 C-249.95539431 185.21662663 -253.41236329 186.11379564 -256.87194824 187.00175476 C-259.00202485 187.55007449 -261.12971474 188.10781566 -263.25402832 188.67805481 C-281.37894794 193.39916012 -299.87768213 194.83465749 -318.48950195 196.26147461 C-321.1185564 196.46861029 -323.74755746 196.676343 -326.37650585 196.88481236 C-332.02789914 197.3317817 -337.67969307 197.77334802 -343.33180237 198.21116638 C-351.62134254 198.85331842 -359.91018171 199.50418976 -368.1988907 200.15697245 C-381.88911726 201.23494586 -395.5798486 202.30636479 -409.27090454 203.37374878 C-428.45380964 204.86934623 -447.63602044 206.37370986 -466.81805478 207.88042982 C-473.45413897 208.40166762 -480.09023548 208.92274855 -486.726332 209.44382934 C-488.37733111 209.5734709 -490.02832985 209.70311723 -491.67932821 209.83276834 C-503.1654757 210.73474872 -514.65171786 211.63551428 -526.13803468 212.53533571 C-562.57358575 215.38973784 -599.0076748 218.26072781 -635.4375 221.1875 C-636.36319723 221.26183927 -637.28889446 221.33617854 -638.24264312 221.41277051 C-654.59736018 222.72615763 -670.95172973 224.04382091 -687.30564582 225.36714423 C-693.56124071 225.87322804 -699.81700591 226.37717736 -706.0728302 226.88041687 C-709.67570054 227.17098579 -713.27834543 227.46423304 -716.88098145 227.75769043 C-718.97638801 227.92641521 -721.07180551 228.09500434 -723.16723633 228.26342773 C-724.0917928 228.33955764 -725.01634928 228.41568754 -725.96892262 228.49412441 C-730.32678919 228.84144528 -734.62354729 229.08445919 -739 229 C-735.79867181 227.15941565 -733.07922672 226.59364665 -729.42200184 226.19117069 C-728.27905275 226.06160325 -727.13610366 225.93203581 -725.95851976 225.79854208 C-724.70174147 225.66401505 -723.44496318 225.52948801 -722.15010071 225.3908844 C-720.80089991 225.24091296 -719.45177421 225.09026468 -718.10271806 224.93899769 C-714.3890251 224.52457364 -710.67433654 224.11976841 -706.95941961 223.71648467 C-702.94948269 223.27947459 -698.94053298 222.83357923 -694.93145752 222.38874817 C-687.96141831 221.6166061 -680.99077778 220.85009791 -674.01970863 220.0873127 C-663.83505901 218.97285042 -653.65140559 217.84949076 -643.46796825 216.72401153 C-626.80636039 214.88277651 -610.1440247 213.04821611 -593.48120117 211.21801758 C-570.70837421 208.71668647 -547.93631048 206.20846987 -525.16452804 203.69764879 C-521.29386254 203.27088803 -517.4231878 202.84421108 -513.55251334 202.41753162 C-493.64045958 200.22251767 -473.72856607 198.026056 -453.81692505 195.82730103 C-452.44403446 195.67570163 -452.44403446 195.67570163 -451.04340871 195.52103962 C-442.05060326 194.5279982 -433.05782149 193.53474306 -424.06511662 192.54079116 C-419.78530146 192.0677503 -415.50547717 191.59479202 -411.22564697 191.12188721 C-410.39923743 191.03057049 -409.57282789 190.93925378 -408.72137563 190.84516989 C-396.23528335 189.46568499 -383.74836638 188.09385932 -371.26097924 186.72615129 C-361.8713617 185.69716515 -352.48265567 184.66017871 -343.09481376 183.61511534 C-338.07367075 183.05636929 -333.05221603 182.50120031 -328.02944374 181.9572773 C-302.11235388 179.14767128 -277.37929376 174.9005141 -252.375 167.375 C-204.79973054 153.16283525 -204.79973054 153.16283525 -183.82421875 164.30859375 C-164.4177541 175.93099928 -157.08106726 200.03018825 -151.80712891 220.71386719 C-144.21869413 251.60930944 -141.01042468 283.48709695 -137 315 C-135.96395023 308.12957018 -134.93006269 301.25881652 -133.89718628 294.38790894 C-133.50585806 291.78574681 -133.11419284 289.18363535 -132.72219849 286.58157349 C-130.17251471 269.65621749 -127.66136619 252.72577803 -125.20349312 235.7868309 C-124.36717003 230.02898388 -123.52644257 224.27177753 -122.68604183 218.51452446 C-122.00173892 213.82300578 -121.32059155 209.1310757 -120.64712524 204.43798828 C-117.72991268 184.1212577 -114.5656007 163.87831792 -110.82421875 143.6953125 C-110.57664227 142.35069348 -110.57664227 142.35069348 -110.32406425 140.97891045 C-102.6142005 99.31264919 -102.6142005 99.31264919 -91.6875 87.5 C-86.34886648 84.52029757 -81.31855835 83.30511966 -75.3125 84.875 C-68.69658135 87.51445186 -65.67406097 93.11763977 -62.875 99.375 C-53.56357273 125.18657668 -52.26584188 154.80748277 -50.0390625 181.91796875 C-49.95468052 182.93409555 -49.87029854 183.95022236 -49.78335953 184.99714088 C-47.76999677 209.39886061 -46.38780996 233.83255206 -45.06054688 258.27954102 C-44.56490377 267.38307007 -44.05755324 276.48596044 -43.55069733 285.588871 C-43.429234 287.77168353 -43.30804967 289.95451161 -43.18715668 292.1373558 C-42.26508105 308.76911578 -41.240309 325.38861093 -40 342 C-34.81021586 265.90111374 -30.37385276 189.77606759 -27.25 113.5625 C-27.22004063 112.83275089 -27.19008125 112.10300179 -27.15921402 111.35113907 C-26.62446184 98.28657711 -26.10656334 85.22190954 -25.74951172 72.15112305 C-25.728927 71.41299661 -25.70834229 70.67487017 -25.68713379 69.91437626 C-25.58906298 66.38737828 -25.49570648 62.86040711 -25.41265869 59.33302307 C-24.21077126 14.52659572 -24.21077126 14.52659572 -15 4 C-10.26667611 -0.18293739 -6.09973357 -1.06225163 0 0 Z M403 49 C400.26879845 61.05874255 398.59699365 72.73746794 398.5625 85.125 C398.55283203 86.22497314 398.54316406 87.32494629 398.53320312 88.45825195 C398.67181357 101.97175072 401.80594582 114.14540341 411.09765625 124.18359375 C419.9964203 132.68036024 432.00101118 135.52759887 444 136 C440.74030453 112.93377395 431.11024656 95.70253503 415 79 C432.06966229 90.37977486 443.99519347 107.91421884 451.625 126.63671875 C452.65912876 129.16622121 453.72867453 131.58570404 455 134 C459.4840141 118.65292792 460.14101469 102.89525389 452.8125 88.3125 C446.89564604 78.69932042 438.85232559 73.85760575 428.9375 68.875 C411.07692772 59.80902578 411.07692772 59.80902578 406.125 52.125 C405.42375 51.09375 404.7225 50.0625 404 49 C403.67 49 403.34 49 403 49 Z M512.44042969 101.55859375 C500.37142443 113.63578139 487.6372409 132.6075632 485 150 C485.49886719 149.6596875 485.99773437 149.319375 486.51171875 148.96875 C513.32414651 130.86915783 541.04597391 119.68760982 573 114 C573.87817383 113.84305664 574.75634766 113.68611328 575.66113281 113.52441406 C586.99260271 111.56635628 598.2208496 110.61261245 609.71484375 110.29003906 C610.6378125 110.26393555 611.56078125 110.23783203 612.51171875 110.2109375 C613.33115967 110.19337402 614.15060059 110.17581055 614.99487305 110.15771484 C617.07170061 110.12069192 617.07170061 110.12069192 619 109 C619 109.66 619 110.32 619 111 C618.30261719 110.95359375 617.60523437 110.9071875 616.88671875 110.859375 C590.10166658 109.94364672 563.8626851 117.33305623 540 129 C539.33629395 129.32226562 538.67258789 129.64453125 537.98876953 129.9765625 C522.63068708 137.53085049 509.77172742 147.70342651 497 159 C499.37423919 166.12271758 512.29947508 170.82672964 518.875 174.1875 C538.92245075 184.16055175 561.21642082 189.0360525 582.93945312 181.77050781 C595.28707437 177.15331674 605.49727291 170.00060911 615 161 C615.84425537 160.21713623 615.84425537 160.21713623 616.70556641 159.41845703 C638.35651639 139.22820677 653.85044244 113.52754099 667.625 87.5625 C668.06328125 86.73911133 668.5015625 85.91572266 668.953125 85.06738281 C669.35273438 84.30393555 669.75234375 83.54048828 670.1640625 82.75390625 C670.51936035 82.07658447 670.8746582 81.3992627 671.24072266 80.70141602 C672.13584134 79.00612642 672.13584134 79.00612642 672 77 C671.00033203 77.18175781 671.00033203 77.18175781 669.98046875 77.3671875 C666.98697917 77.91145833 663.99348958 78.45572917 661 79 C660.18926025 79.16612793 659.37852051 79.33225586 658.54321289 79.50341797 C652.00282281 80.7976582 645.72677609 81.38658299 639.0625 81.375 C638.07032471 81.37338867 637.07814941 81.37177734 636.0559082 81.37011719 C626.90214055 81.22131102 618.3232077 79.7106712 609.44482422 77.58203125 C606.88702594 76.97310464 604.32279986 76.40392409 601.75390625 75.84375 C597.49797785 74.91548042 593.24786131 73.96449025 589 73 C588.48050781 74.01320313 587.96101563 75.02640625 587.42578125 76.0703125 C586.72173823 77.4220751 586.01728941 78.77362641 585.3125 80.125 C584.97283203 80.79015625 584.63316406 81.4553125 584.28320312 82.140625 C581.95100913 86.58705094 579.3931509 90.28892184 576 94 C575.67 94 575.34 94 575 94 C574.90203125 93.154375 574.8040625 92.30875 574.703125 91.4375 C573.78458764 84.46928557 572.56936301 79.06791711 569 73 C550.97590107 73 525.3208545 89.15960121 512.44042969 101.55859375 Z M445 121 C446 123 446 123 446 123 Z " fill="#EA5C0C" transform="translate(1000,150)"/>
<path d="M0 0 C1.19808289 0.05091797 2.39616577 0.10183594 3.6305542 0.15429688 C94.39694631 4.01585153 185.92325844 11.56685359 376 60 C375 63 375 63 372.875 64.9375 C372.25625 65.618125 371.6375 66.29875 371 67 C371.158243 69.82493061 371.88131148 70.87932921 373.87109375 72.90234375 C381.15385709 78.67756399 388.63353833 84.13860677 396.19140625 89.546875 C400.97067542 92.96937948 405.70900065 96.44530214 410.4375 99.9375 C411.22447266 100.51846436 412.01144531 101.09942871 412.82226562 101.69799805 C414.4179837 102.876387 416.01352395 104.05501678 417.60888672 105.23388672 C421.56991162 108.15956103 425.53515717 111.07950306 429.5 114 C431.08335379 115.1666389 432.66668712 116.33330558 434.25 117.5 C435.03375 118.0775 435.8175 118.655 436.625 119.25 C439 121 441.375 122.75 443.75 124.5 C444.53383057 125.0775 445.31766113 125.655 446.12524414 126.25 C447.70799282 127.41635577 449.29051254 128.58302232 450.87280273 129.75 C454.83825874 132.674019 458.8075885 135.59247342 462.78515625 138.5 C471.4406471 144.83587232 479.99784224 151.27205064 488.43945312 157.890625 C493.26184604 161.66724877 498.13992008 165.35530992 503.0625 169 C510.99457536 174.88990995 518.58189161 181.16912008 526.17285156 187.48876953 C528.50740387 189.41967263 530.87422638 191.30764029 533.25 193.1875 C537.61969684 196.65951718 541.87701515 200.25381883 546.12304688 203.875 C549.45173521 206.70925159 552.82763426 209.46622588 556.25 212.1875 C567.48443173 221.32988945 577.89403548 231.63490818 588 242 C585 242 585 242 582.90625 240.12890625 C582.1121875 239.28199219 581.318125 238.43507812 580.5 237.5625 C576.14444191 233.06766534 571.59304758 229.10901072 566.70703125 225.20703125 C564.11342822 223.09247755 561.64792569 220.89213529 559.1875 218.625 C554.21797891 214.10226551 548.98892712 209.98635969 543.68359375 205.87109375 C540.65566205 203.52154675 537.66745413 201.12721009 534.68847656 198.71606445 C525.76795881 191.50447195 516.60111001 184.63786435 507.39990234 177.79003906 C505.19499033 176.14543938 502.99621138 174.49316369 500.80078125 172.8359375 C486.89530151 162.34130045 472.7576213 152.19196162 458.46411133 142.2331543 C452.91227332 138.35874184 447.41179023 134.42055124 441.9375 130.4375 C435.86083419 126.01907926 429.71583052 121.72028175 423.5 117.5 C416.53087783 112.76826559 409.66608584 107.91579841 402.85742188 102.95629883 C397.12493348 98.78818692 391.32189084 94.72948761 385.5 90.6875 C366.03197234 77.12364946 366.03197234 77.12364946 363 72 C362.90336791 68.92811683 363.51043567 66.02639767 364 63 C363.34080566 62.82621826 362.68161133 62.65243652 362.00244141 62.47338867 C356.10541488 60.89514314 350.28298497 59.16395372 344.47094727 57.29882812 C249.07503253 26.90694298 144.57798344 21.07449911 -79.93802536 13.74286193 C-84.65272306 13.75040327 -89.3673366 13.74766847 -94.08203125 13.73925781 C-143.7199938 13.65317618 -193.33022756 14.57717613 -242.875 17.8125 C-244.20568399 17.89722355 -245.53638309 17.98170999 -246.86709595 18.065979 C-337.85956178 23.85079327 -421.03083657 35.7666383 -600.521698 114.92497253 C-605.38940457 117.2407096 -610.26703434 119.53415389 -615.15234375 121.8125 C-651.2088278 138.6380801 -686.82448405 156.36757504 -722.41734314 174.14742661 C-724.7228818 175.29895549 -727.02871479 176.44989321 -729.33459473 177.60073853 C-744.61193954 185.22748283 -759.87407256 192.86807999 -774.94171143 200.90396118 C-810.53197332 219.85577828 -846.42335201 235.99781101 -885.625 245.9375 C-887.14746338 246.32470215 -887.14746338 246.32470215 -888.70068359 246.71972656 C-892.12248544 247.54528698 -895.5534461 248.28443269 -899 249 C-899.70843048 249.15176697 -900.41686096 249.30353394 -901.14675903 249.4598999 C-919.98483061 253.40947075 -939.13028244 254.69095907 -958.27600098 256.262146 C-968.45622896 257.09873469 -978.63233672 257.98382427 -988.80859375 258.8671875 C-989.83712589 258.95627003 -990.86565804 259.04535255 -991.92535782 259.13713455 C-1078.89398926 266.6822511 -1166.25083848 276.41743582 -1403.734375 343.79296875 C-1407.71014346 348.5658591 -1409.4475412 353.62537466 -1411.140625 359.55859375 C-1412 362 -1412 362 -1414 363 C-1411.96799202 348.69573326 -1407.19849162 339.76887576 -1395.875 330.6875 C-1359.93481852 304.76781522 -1311.51192024 293.31851783 -1269 283 C-1268.16891724 282.79824158 -1267.33783447 282.59648315 -1266.48156738 282.38861084 C-1174.15487638 260.07370103 -1080.09206873 247.38470544 -975.59375 235.26171875 C-974.76488785 235.16584536 -973.9360257 235.06997196 -973.08204651 234.97119331 C-964.96748115 234.03269902 -956.85269834 233.09633663 -948.73651314 232.17194462 C-945.63914163 231.81834091 -942.54217253 231.46129889 -939.44528198 231.1035099 C-938.01619056 230.93920404 -936.58692646 230.77639122 -935.1574707 230.61528587 C-885.66726589 225.03475442 -838.05093726 207.03505635 -794.68959045 182.98008728 C-780.97489443 175.37834657 -766.98024078 168.35426089 -752.94342041 161.37390137 C-750.4385727 160.12688272 -747.93597287 158.87538999 -745.43337154 157.62387085 C-730.80802373 150.31152159 -716.12450641 143.13300833 -701.35293579 136.11978149 C-698.17270589 134.60628393 -695.00168897 133.07458141 -691.83203125 131.5390625 C-676.59853752 124.16187461 -661.29105586 116.95814646 -645.91546631 109.88220215 C-643.94904038 108.97652964 -641.98346638 108.06902942 -640.01806641 107.16113281 C-617.01461984 96.53918168 -593.87621814 86.24152905 -570.63720703 76.14575195 C-568.88016428 75.38239317 -567.12332796 74.61855907 -565.36669922 73.85424805 C-527.99216255 57.5934475 -490.3923094 41.94165089 -451.8493042 28.63873291 C-450.16277149 28.0562198 -448.47801567 27.46856859 -446.79345703 26.88037109 C-382.48497964 4.71817778 -308.56889344 3.26511452 -241.32330322 0.15429688 C-239.1245971 0.05221366 -236.92598518 -0.05192097 -234.72747803 -0.15820312 C-156.67535778 -3.93104492 -78.0597556 -3.41988889 0 0 Z " fill="#293183" transform="translate(1450,50)"/>
<!-- <path d="M0 0 C6.20095486 3.87065972 6.20095486 3.87065972 7.83984375 7.1484375 C11.55675536 5.43039836 14.47729792 3.1504989 17.64453125 0.5859375 C24.62431015 -3.98445153 32.81442825 -3.66489313 40.83984375 -2.8515625 C46.73691099 -1.02896956 51.69208342 1.70039077 54.83984375 7.1484375 C59.83189481 17.56506391 59.98535265 27.2374994 59.9375 38.6171875 C59.93608505 39.89323853 59.9346701 41.16928955 59.93321228 42.48400879 C59.92858386 45.85081906 59.91962346 49.21755957 59.9085083 52.58435059 C59.89821705 56.03018587 59.89364317 59.47602861 59.88867188 62.921875 C59.87853014 69.66410135 59.85894957 76.40620682 59.83984375 83.1484375 C51.58984375 83.1484375 43.33984375 83.1484375 34.83984375 83.1484375 C34.78376953 77.20650391 34.78376953 77.20650391 34.7265625 71.14453125 C34.6803225 67.29869127 34.62909763 63.45294766 34.57739258 59.60717773 C34.54255475 56.93884339 34.51614049 54.2708036 34.4934082 51.60229492 C34.4597896 47.76190607 34.40746734 43.92215248 34.3515625 40.08203125 C34.34517258 38.89322861 34.33878265 37.70442596 34.3321991 36.479599 C34.20760297 29.42567041 34.08691508 23.39550883 28.83984375 18.1484375 C22.9603748 17.46136462 22.9603748 17.46136462 17.96484375 20.2734375 C13.11063261 26.84089963 13.50469446 33.68905907 13.42578125 41.546875 C13.4064151 42.73697174 13.38704895 43.92706848 13.36709595 45.15322876 C13.30745872 48.94322611 13.26097759 52.73325409 13.21484375 56.5234375 C13.17664944 59.09766928 13.13759686 61.67188847 13.09765625 64.24609375 C13.0001597 70.54680844 12.92046316 76.8473939 12.83984375 83.1484375 C4.58984375 83.1484375 -3.66015625 83.1484375 -12.16015625 83.1484375 C-12.21623047 77.45787109 -12.21623047 77.45787109 -12.2734375 71.65234375 C-12.3197117 67.95868318 -12.37092409 64.26512158 -12.42260742 60.5715332 C-12.45576361 58.01397772 -12.4838242 55.4563507 -12.5065918 52.89868164 C-12.5403084 49.21209364 -12.5926348 45.52615571 -12.6484375 41.83984375 C-12.65482742 40.70511124 -12.66121735 39.57037872 -12.6678009 38.40126038 C-12.78395813 32.06095487 -13.07502747 25.83971628 -16.16015625 20.1484375 C-19.18559959 18.13147528 -19.77083007 17.89032654 -23.16015625 17.9609375 C-23.84078125 17.96738281 -24.52140625 17.97382813 -25.22265625 17.98046875 C-27.37773834 18.09146004 -27.37773834 18.09146004 -30.16015625 19.1484375 C-33.97257293 25.75009217 -33.63115806 33.68863438 -33.671875 41.05859375 C-33.6898262 42.26664169 -33.7077774 43.47468964 -33.72627258 44.71934509 C-33.78013503 48.54984118 -33.8141949 52.38021435 -33.84765625 56.2109375 C-33.88085046 58.81967847 -33.91534205 61.42840327 -33.95117188 64.03710938 C-34.03827194 70.40756745 -34.09854978 76.77747864 -34.16015625 83.1484375 C-42.41015625 83.1484375 -50.66015625 83.1484375 -59.16015625 83.1484375 C-59.16015625 55.4284375 -59.16015625 27.7084375 -59.16015625 -0.8515625 C-50.91015625 -0.8515625 -42.66015625 -0.8515625 -34.16015625 -0.8515625 C-33.83015625 0.7984375 -33.50015625 2.4484375 -33.16015625 4.1484375 C-31.86078125 2.9728125 -31.86078125 2.9728125 -30.53515625 1.7734375 C-22.63868879 -5.37098544 -8.95485945 -4.70255189 0 0 Z " fill="#293183" transform="translate(1406.16015625,469.8515625)"/>
<path d="M0 0 C6.93 0 13.86 0 21 0 C21.92296875 2.54976563 22.8459375 5.09953125 23.796875 7.7265625 C31.55644047 29.13886355 39.39306638 50.52129384 47.3125 71.875 C48.16865565 74.18480116 49.02477576 76.4946155 49.88085938 78.80444336 C53.20279071 87.76596528 56.52573018 96.72709758 59.85856628 105.68457031 C60.92276901 108.54767901 61.9832465 111.41215405 63.04232788 114.27716064 C63.7269782 116.12535335 64.41674579 117.9716479 65.10668945 119.81787109 C65.49945068 120.88215332 65.89221191 121.94643555 66.296875 123.04296875 C66.63041992 123.94039795 66.96396484 124.83782715 67.30761719 125.76245117 C68 128 68 128 68 131 C59.09 131 50.18 131 41 131 C39.3603125 126.7925 39.3603125 126.7925 37.6875 122.5 C37.34936279 121.63310547 37.01122559 120.76621094 36.6628418 119.87304688 C36.24772339 118.80666992 36.24772339 118.80666992 35.82421875 117.71875 C35.54666748 117.00654297 35.26911621 116.29433594 34.9831543 115.56054688 C33.63458299 112.04830057 32.32101387 108.52270366 31 105 C16.81 104.67 2.62 104.34 -12 104 C-12.99 107.3 -13.98 110.6 -15 114 C-16.01472227 116.86999806 -17.04397706 119.71870347 -18.125 122.5625 C-18.38925781 123.27212891 -18.65351563 123.98175781 -18.92578125 124.71289062 C-20.8702957 129.8702957 -20.8702957 129.8702957 -22 131 C-23.99964982 131.08758003 -26.0023611 131.10696576 -28.00390625 131.09765625 C-29.21884766 131.09443359 -30.43378906 131.09121094 -31.68554688 131.08789062 C-32.96494141 131.07951172 -34.24433594 131.07113281 -35.5625 131.0625 C-36.84576172 131.05798828 -38.12902344 131.05347656 -39.45117188 131.04882812 C-42.63416022 131.03699545 -45.81705762 131.02051068 -49 131 C-46.41068674 121.44130619 -42.81237821 112.25127254 -39.3125 103 C-38.64499335 101.22866819 -37.97767966 99.45726366 -37.31054688 97.68579102 C-35.21313799 92.12154353 -33.10776676 86.56033102 -31 81 C-30.66321228 80.11141296 -30.32642456 79.22282593 -29.97943115 78.30731201 C-20.07066627 52.17250095 -10.05092404 26.08041497 0 0 Z M8 41 C6.28751525 46.6589423 4.57860825 52.31894766 2.87304688 57.97998047 C2.29200537 59.90671151 1.70997734 61.83314533 1.12695312 63.75927734 C0.29038754 66.52364287 -0.54265532 69.28904858 -1.375 72.0546875 C-1.63748535 72.9193161 -1.8999707 73.7839447 -2.17041016 74.67477417 C-2.41065918 75.47545319 -2.6509082 76.2761322 -2.8984375 77.10107422 C-3.11161621 77.8072287 -3.32479492 78.51338318 -3.54443359 79.24093628 C-4.08357031 81.01983763 -4.08357031 81.01983763 -4 83 C5.24 83 14.48 83 24 83 C22.1865456 76.95515202 20.36766353 70.97587723 18.30078125 65.0234375 C18.0608696 64.32731354 17.82095795 63.63118958 17.57377625 62.91397095 C16.82188533 60.73366377 16.06725169 58.55431829 15.3125 56.375 C14.79604035 54.87896962 14.27976292 53.38287633 13.76367188 51.88671875 C12.51121261 48.25708425 11.25629613 44.62830818 10 41 C9.34 41 8.68 41 8 41 Z " fill="#293183" transform="translate(49,422)"/>
<path d="M0 0 C2.74168487 1.91762458 4.89013654 3.90633118 7.06640625 6.4453125 C9.81452871 5.28264531 11.55035127 4.01636123 13.81640625 2.0078125 C21.33058627 -4.27880346 29.63655208 -4.36893395 39.06640625 -3.5546875 C44.14675716 -2.46094581 48.4766116 -0.3385251 52.06640625 3.4453125 C56.3402507 10.58856526 58.19636586 16.55578958 58.17993164 24.88793945 C58.17981834 26.80936516 58.17981834 26.80936516 58.17970276 28.76960754 C58.1745969 30.15760335 58.16938092 31.54559875 58.1640625 32.93359375 C58.162196 34.36134288 58.16077319 35.78909265 58.15977478 37.21684265 C58.1559679 40.96344795 58.14615332 44.7100141 58.1350708 48.456604 C58.12481727 52.28421499 58.12026873 56.11183234 58.11523438 59.93945312 C58.10452932 67.44142611 58.08694743 74.94335882 58.06640625 82.4453125 C50.14640625 82.4453125 42.22640625 82.4453125 34.06640625 82.4453125 C34.01033203 76.75474609 34.01033203 76.75474609 33.953125 70.94921875 C33.9068508 67.25555818 33.85563841 63.56199658 33.80395508 59.8684082 C33.77079889 57.31085272 33.7427383 54.7532257 33.7199707 52.19555664 C33.6862541 48.50896864 33.6339277 44.82303071 33.578125 41.13671875 C33.57173508 40.00198624 33.56534515 38.86725372 33.5587616 37.69813538 C33.44260437 31.35782987 33.15153503 25.13659128 30.06640625 19.4453125 C26.88544365 17.32467076 24.8701184 16.88359514 21.06640625 17.0234375 C18.22453907 17.62289386 16.63445019 19.04585873 15.01757812 21.41601562 C9.79953954 32.54854558 11.61305047 47.74279592 11.44140625 59.6953125 C11.40315795 61.90496216 11.36410242 64.114598 11.32421875 66.32421875 C11.22746941 71.6978385 11.14731394 77.07133836 11.06640625 82.4453125 C3.14640625 82.4453125 -4.77359375 82.4453125 -12.93359375 82.4453125 C-12.97097656 78.72378906 -13.00835938 75.00226563 -13.046875 71.16796875 C-13.09315182 67.54380584 -13.14436324 63.91974369 -13.19604492 60.2956543 C-13.22919707 57.78660256 -13.25725889 55.27747798 -13.2800293 52.76831055 C-13.31375345 49.15121569 -13.36608002 45.53478248 -13.421875 41.91796875 C-13.42826492 40.80511002 -13.43465485 39.69225128 -13.4412384 38.54566956 C-13.57013297 31.64048148 -13.83354913 24.36646452 -18.29096985 18.72840881 C-20.68831643 16.85577896 -23.04673916 16.9745358 -26 17.09375 C-29.02942051 17.64455373 -30.1956635 18.97210407 -31.93359375 21.4453125 C-35.74516328 28.66723372 -35.11812105 37.76725648 -35.25 45.7265625 C-35.2707811 46.78065308 -35.29156219 47.83474365 -35.31297302 48.92077637 C-35.3779505 52.26222707 -35.43711086 55.60375115 -35.49609375 58.9453125 C-35.53932832 61.22136152 -35.58294413 63.49740333 -35.62695312 65.7734375 C-35.73429006 71.33065534 -35.8337479 76.88793491 -35.93359375 82.4453125 C-43.85359375 82.4453125 -51.77359375 82.4453125 -59.93359375 82.4453125 C-59.93359375 54.7253125 -59.93359375 27.0053125 -59.93359375 -1.5546875 C-52.01359375 -1.5546875 -44.09359375 -1.5546875 -35.93359375 -1.5546875 C-35.60359375 0.4253125 -35.27359375 2.4053125 -34.93359375 4.4453125 C-34.27359375 3.6821875 -33.61359375 2.9190625 -32.93359375 2.1328125 C-24.29545507 -6.28997092 -9.92626304 -5.72354541 0 0 Z " fill="#293183" transform="translate(885.93359375,470.5546875)"/>
<path d="M0 0 C11.3968068 8.12167219 17.69315906 19.34107337 20 33 C21.14058793 47.47237802 18.46962718 61.64019031 9 73 C1.22974845 80.72692301 -7.19189983 84.34318409 -18.125 84.4375 C-27.03101935 84.30850204 -31.92741843 82.65806526 -39 77 C-39.33 93.17 -39.66 109.34 -40 126 C-48.25 126 -56.5 126 -65 126 C-65 83.76 -65 41.52 -65 -2 C-56.75 -2 -48.5 -2 -40 -2 C-39.67 -0.35 -39.34 1.3 -39 3 C-38.49210938 2.66226562 -37.98421875 2.32453125 -37.4609375 1.9765625 C-36.77257812 1.53054688 -36.08421875 1.08453125 -35.375 0.625 C-34.70210937 0.18414062 -34.02921875 -0.25671875 -33.3359375 -0.7109375 C-23.15538324 -6.32896911 -10.04082532 -5.6017236 0 0 Z M-38.89453125 26.25 C-42.67789705 32.23921511 -43.60449353 38.24294136 -42.703125 45.21875 C-41.12667652 51.45447953 -37.89184534 56.31379003 -33.125 60.5625 C-27.84259947 62.99240425 -23.40726659 63.69979947 -17.875 62 C-12.09929118 59.49227574 -8.59684283 54.86699003 -6.125 49.1875 C-3.91218648 42.37782981 -4.18451302 35.38307735 -7.0234375 28.81640625 C-9.82937316 23.59736593 -13.27882852 19.94303937 -19 18 C-27.80565919 16.83644634 -33.33671167 19.05541155 -38.89453125 26.25 Z " fill="#293183" transform="translate(1025,471)"/>
<path d="M0 0 C2.40162755 1.61295748 4.66242275 3.33841558 6.84375 5.23828125 C6.38327805 10.36225635 3.7648175 13.56585135 0.78125 17.55078125 C0.30880859 18.19595703 -0.16363281 18.84113281 -0.65039062 19.50585938 C-1.81134704 21.08898176 -2.98277336 22.66441694 -4.15625 24.23828125 C-7.15625 23.23828125 -7.15625 23.23828125 -9.40625 20.86328125 C-13.66132358 16.8016201 -17.88557591 15.09489087 -23.71875 14.80078125 C-29.10941641 14.99363303 -32.11072022 17.39730445 -36.03125 20.92578125 C-37.79040458 24.54182122 -38.15660036 28.33559859 -37.15625 32.23828125 C-33.59504664 36.63065732 -29.59496545 38.82845489 -24.59375 41.17578125 C-23.88919678 41.51931641 -23.18464355 41.86285156 -22.45874023 42.21679688 C-19.24140478 43.78334715 -16.00773801 45.30673333 -12.7578125 46.8046875 C-2.66345761 51.56642046 5.67189581 57.53808619 9.84375 68.23828125 C13.60948652 80.29242276 12.39042659 93.95061775 6.84375 105.23828125 C1.10199806 115.70951094 -6.53817583 121.51754048 -17.65625 125.48828125 C-29.67771143 128.12540026 -42.53933067 126.99707584 -52.96875 120.36328125 C-56.38292195 117.92373282 -59.33286799 115.35886136 -62.15625 112.23828125 C-62.75695312 111.59503906 -63.35765625 110.95179688 -63.9765625 110.2890625 C-69.78846966 103.92420061 -69.78846966 103.92420061 -70.15625 100.23828125 C-68.89282227 98.40722656 -68.89282227 98.40722656 -66.97265625 96.56640625 C-66.29267578 95.90253906 -65.61269531 95.23867188 -64.91210938 94.5546875 C-63.82639648 93.53181641 -63.82639648 93.53181641 -62.71875 92.48828125 C-61.99880859 91.79089844 -61.27886719 91.09351563 -60.53710938 90.375 C-58.75413539 88.65106489 -56.96057174 86.93981516 -55.15625 85.23828125 C-51.67825199 86.39761392 -51.56523646 86.8589929 -49.90625 89.92578125 C-46.63117331 95.43701302 -42.14447771 99.77583247 -36.15625 102.23828125 C-31.30182939 102.92719243 -27.27673506 102.73627461 -22.78125 100.73828125 C-18.20729601 96.38213459 -15.96242971 91.90764332 -15.71875 85.55078125 C-15.88358586 81.72658924 -16.88106614 79.36665906 -19.15625 76.23828125 C-19.15625 75.57828125 -19.15625 74.91828125 -19.15625 74.23828125 C-22.23250007 72.66677755 -25.35573577 71.24271953 -28.515625 69.84765625 C-29.54945313 69.38488281 -30.58328125 68.92210937 -31.6484375 68.4453125 C-33.80148063 67.48238074 -35.95769881 66.52651358 -38.1171875 65.578125 C-48.10368736 61.080483 -58.29376982 55.22347964 -63.2578125 44.9609375 C-66.71600409 34.99035707 -66.32519293 23.90834811 -62.15625 14.23828125 C-56.65150427 3.01193617 -49.39688355 -2.53009775 -37.96875 -7.01171875 C-24.69821862 -9.62231509 -11.56437939 -6.9688331 0 0 Z " fill="#293183" transform="translate(716.15625,429.76171875)"/>
<path d="M0 0 C9.24 0 18.48 0 28 0 C34.46047716 14.61682958 40.86230617 29.24491369 47 44 C52.81519632 32.83140235 58.00376157 21.41182596 63.04980469 9.87963867 C63.54770508 8.74502197 64.04560547 7.61040527 64.55859375 6.44140625 C65.00517334 5.41732666 65.45175293 4.39324707 65.91186523 3.33813477 C67 1 67 1 68 0 C69.99964982 -0.08758003 72.0023611 -0.10696576 74.00390625 -0.09765625 C75.21884766 -0.09443359 76.43378906 -0.09121094 77.68554688 -0.08789062 C78.96494141 -0.07951172 80.24433594 -0.07113281 81.5625 -0.0625 C82.84576172 -0.05798828 84.12902344 -0.05347656 85.45117188 -0.04882812 C88.63416022 -0.03699545 91.81705762 -0.02051068 95 0 C92.65087998 8.11265868 88.98606335 15.49345959 85.25262451 23.03405762 C83.31713472 26.944847 81.40093853 30.86506548 79.484375 34.78515625 C79.09917694 35.57227997 78.71397888 36.35940369 78.31710815 37.17037964 C74.90751937 44.15381901 71.6207188 51.1887698 68.375 58.25 C63.52000714 68.80191401 58.5075415 79.26737307 53.42077637 89.7086792 C48.5433518 99.72588755 43.81568484 109.79829653 39.23583984 119.95605469 C38.82027832 120.87547852 38.4047168 121.79490234 37.9765625 122.7421875 C37.61643066 123.5451123 37.25629883 124.34803711 36.88525391 125.17529297 C36 127 36 127 35 128 C33.00035018 128.08758003 30.9976389 128.10696576 28.99609375 128.09765625 C27.78115234 128.09443359 26.56621094 128.09121094 25.31445312 128.08789062 C24.03505859 128.07951172 22.75566406 128.07113281 21.4375 128.0625 C20.15423828 128.05798828 18.87097656 128.05347656 17.54882812 128.04882812 C14.36583978 128.03699545 11.18294238 128.02051068 8 128 C9.52091609 122.99110978 11.6106393 118.45315579 13.921875 113.77734375 C14.30434387 112.99541153 14.68681274 112.21347931 15.08087158 111.40785217 C16.30038203 108.91598499 17.52488613 106.4266164 18.75 103.9375 C21.49292508 98.3509365 24.22699772 92.76025407 26.94458008 87.16131592 C27.93509771 85.13290857 28.94159138 83.11320397 29.95117188 81.09423828 C30.50869141 79.95067871 31.06621094 78.80711914 31.640625 77.62890625 C32.36813965 76.16239624 32.36813965 76.16239624 33.11035156 74.66625977 C34.80350174 69.59192029 32.6988281 66.05298716 30.39779663 61.43017578 C30.04093781 60.72876465 29.68407898 60.02735352 29.31640625 59.3046875 C28.94504547 58.56347656 28.57368469 57.82226562 28.19107056 57.05859375 C26.98759074 54.66096657 25.7753222 52.26791304 24.5625 49.875 C23.735104 48.23209921 22.90803745 46.58903247 22.08129883 44.94580078 C16.80966461 34.48686287 11.4373089 24.08545277 5.92822266 13.74951172 C4.55305299 11.1575954 3.2062061 8.55223816 1.875 5.9375 C1.50117187 5.20402344 1.12734375 4.47054688 0.7421875 3.71484375 C0 2 0 2 0 0 Z " fill="#293183" transform="translate(727,469)"/>
<path d="M0 0 C9.04877063 6.82652038 14.2753685 15.79407485 16.6875 26.8125 C17.80996538 41.65965569 16.84523932 54.56878288 7.6875 66.8125 C1.03845077 74.21329359 -8.2888667 80.20590229 -18.44384766 80.97363281 C-33.62198938 81.25284569 -46.45562573 80.72971116 -58.3203125 69.99609375 C-68.23357753 59.37473836 -71.02044099 47.03159323 -70.625 32.88671875 C-69.92208128 20.45384397 -64.21181097 9.86460382 -55.29296875 1.37890625 C-39.73356606 -10.92744578 -16.20313227 -10.44579742 0 0 Z M-38.3125 18.8125 C-44.33663276 26.68365459 -46.38004787 32.8406324 -45.3125 42.8125 C-43.24080189 49.29548633 -40.11936858 54.23904241 -34.3125 57.8125 C-29.85255028 59.60311179 -25.85300778 60.32991899 -21.1875 58.9375 C-15.56727286 56.36857382 -11.88677131 51.93480476 -9.140625 46.48828125 C-6.65955076 39.73061852 -7.30618967 33.64186177 -9.3125 26.8125 C-11.97421523 21.58413079 -16.01716507 17.46016746 -21.3125 14.8125 C-27.9743717 14.14848991 -33.24407709 13.97981769 -38.3125 18.8125 Z " fill="#293183" transform="translate(258.3125,474.1875)"/>
<path d="M0 0 C8.95444941 6.49319026 14.87109198 15.35531394 17.1875 26.25 C18.03901064 37.31024231 18.74558261 49.32485249 13.1875 59.25 C12.53394531 60.43916016 12.53394531 60.43916016 11.8671875 61.65234375 C6.16632452 71.01359689 -1.70194805 76.80022029 -11.953125 80.33203125 C-24.95054814 83.4235236 -39.12002943 82.18890373 -50.734375 75.58984375 C-60.71161346 69.02374222 -66.01778538 60.11102124 -69.15625 48.70703125 C-71.67665748 35.42988471 -69.97646069 21.9569042 -62.53515625 10.56640625 C-47.95004229 -9.04577647 -20.51216392 -12.59639596 0 0 Z M-41.15625 23.06640625 C-45.02599818 29.46531127 -45.66675831 35.91114452 -44.8125 43.25 C-42.69252469 49.71957983 -39.62685402 54.67193599 -33.8125 58.25 C-28.05459606 60.42895085 -23.59829345 60.69783569 -17.8125 58.25 C-11.98119039 54.77898238 -8.78835576 49.06881129 -7.13671875 42.60546875 C-6.12544402 35.46525625 -7.49943577 29.62529709 -10.8125 23.25 C-13.08377334 20.22590636 -13.08377334 20.22590636 -15.8125 18.25 C-16.51375 17.651875 -17.215 17.05375 -17.9375 16.4375 C-27.14307868 12.63519576 -35.32909861 15.18958824 -41.15625 23.06640625 Z " fill="#293183" transform="translate(1118.8125,473.75)"/>
<path d="M0 0 C3.89833689 3.50402236 6.86839086 7.72164077 9.375 12.3125 C9.375 12.9725 9.375 13.6325 9.375 14.3125 C6.9414433 15.6535005 4.50364699 16.98544856 2.0625 18.3125 C1.37220703 18.6940625 0.68191406 19.075625 -0.02929688 19.46875 C-5.28515625 22.3125 -5.28515625 22.3125 -8.625 22.3125 C-9.73046875 20.73828125 -9.73046875 20.73828125 -10.8125 18.625 C-14.0454029 13.19834156 -17.93556444 10.25685473 -24.08203125 8.68359375 C-31.02407062 7.67054653 -35.87597559 8.91787174 -41.72265625 12.65234375 C-48.98119043 18.20139138 -52.19114022 26.45124658 -53.625 35.3125 C-54.6616684 44.96541232 -52.38950484 54.90548922 -46.75 62.875 C-43.32588813 66.98393425 -39.74374541 69.60625153 -34.625 71.3125 C-28.3572654 71.8241518 -22.96652049 72.00069272 -17.625 68.3125 C-12.60582102 63.99367157 -10.22234228 59.70186913 -8.625 53.3125 C-14.895 52.9825 -21.165 52.6525 -27.625 52.3125 C-27.625 47.0325 -27.625 41.7525 -27.625 36.3125 C-14.095 36.3125 -0.565 36.3125 13.375 36.3125 C13.375 52.22807691 11.21544569 66.87891831 0.25 79.125 C-9.70342289 88.34524665 -21.22030046 89.80028778 -34.09765625 89.58984375 C-45.09519855 89.13246614 -54.82313633 83.58656628 -62.3125 75.6875 C-72.37903027 63.490611 -75.40628051 48.48022052 -74.4140625 33.02734375 C-72.51239222 19.41066696 -66.34906074 7.32402203 -55.5625 -1.34375 C-38.7322564 -13.01633831 -16.22206824 -12.8218094 0 0 Z " fill="#293183" transform="translate(761.625,639.6875)"/>
<path d="M0 0 C7.92 0 15.84 0 24 0 C24.04898437 3.26519531 24.09796875 6.53039062 24.1484375 9.89453125 C24.20258647 13.0885033 24.25983909 16.28240587 24.31738281 19.47631836 C24.35545322 21.68069187 24.39034259 23.88512288 24.421875 26.08959961 C24.46800576 29.27478461 24.52591683 32.45958119 24.5859375 35.64453125 C24.59748871 36.61582474 24.60903992 37.58711823 24.62094116 38.58784485 C24.79466375 50.78365006 24.79466375 50.78365006 29 62 C32.72338769 64.11722045 35.33293209 64.98849883 39.625 65.0625 C44.21049072 63.61891959 45.34931989 61.97602017 48 58 C49.04715493 54.85670538 49.15135936 51.88831332 49.20532227 48.58886719 C49.22526749 47.50804871 49.24521271 46.42723022 49.26576233 45.31365967 C49.29083107 43.57285126 49.29083107 43.57285126 49.31640625 41.796875 C49.33718735 40.60394836 49.35796844 39.41102173 49.37937927 38.1819458 C49.44476239 34.37135577 49.50370776 30.56069686 49.5625 26.75 C49.60569589 24.16665954 49.64931052 21.58332605 49.69335938 19 C49.80122023 12.66673625 49.90037793 6.33342018 50 0 C58.25 0 66.5 0 75 0 C75.04608134 7.63158251 75.08585695 15.26267599 75.10986328 22.89428711 C75.11987841 25.48675173 75.13349439 28.07920518 75.15087891 30.67163086 C75.17532515 34.41262583 75.18652836 38.15347055 75.1953125 41.89453125 C75.20563507 43.04081497 75.21595764 44.18709869 75.22659302 45.36811829 C75.22819079 57.0060585 74.37536099 68.11568162 66.140625 77.0078125 C55.30397433 87.04641525 42.59306617 86.66490195 28.57324219 86.18798828 C23.55747214 85.82156106 19.38052567 84.39468737 15 82 C13.906875 81.443125 12.81375 80.88625 11.6875 80.3125 C3.98304045 73.68308132 0.54279266 64.78655071 -0.25717163 54.78457642 C-0.3446006 51.26499244 -0.33794644 47.75863767 -0.29296875 44.23828125 C-0.28872391 42.96647507 -0.28447906 41.69466888 -0.28010559 40.38432312 C-0.26626412 37.04197301 -0.23942643 33.70026659 -0.20599365 30.35809326 C-0.17502058 26.93214405 -0.16154276 23.5061277 -0.14648438 20.08007812 C-0.1135768 13.38652189 -0.06187849 6.69334856 0 0 Z " fill="#293183" transform="translate(1257,469)"/>
<path d="M0 0 C7.92 0 15.84 0 24 0 C24.04898437 3.50496094 24.09796875 7.00992187 24.1484375 10.62109375 C24.20253388 14.0367438 24.25980736 17.45232695 24.31738281 20.86791992 C24.35553336 23.23147544 24.39040987 25.59508626 24.421875 27.95874023 C24.46782887 31.36722505 24.52577269 34.77533367 24.5859375 38.18359375 C24.59748871 39.23083115 24.60903992 40.27806854 24.62094116 41.35704041 C24.77274779 52.29695649 24.77274779 52.29695649 29.1875 62 C32.6510183 64.46294634 34.75679025 65 39 65 C42.6742263 63.72815244 44.48936587 62.68671486 46.8125 59.5625 C48.67913105 55.53450668 49.13154004 52.10759786 49.20532227 47.68066406 C49.22526749 46.61986633 49.24521271 45.5590686 49.26576233 44.46612549 C49.28247482 43.32746033 49.29918732 42.18879517 49.31640625 41.015625 C49.33718735 39.84489441 49.35796844 38.67416382 49.37937927 37.46795654 C49.44475628 33.72869731 49.50370491 29.98936795 49.5625 26.25 C49.60569647 23.7148365 49.64931112 21.17968009 49.69335938 18.64453125 C49.80121234 12.42975834 49.90037455 6.21493207 50 0 C58.25 0 66.5 0 75 0 C75.0461231 7.32844836 75.0858858 14.65638498 75.10986328 21.98486328 C75.11986813 24.4734875 75.13347622 26.96210012 75.15087891 29.45068359 C75.17537112 33.04527667 75.18653864 36.63971317 75.1953125 40.234375 C75.20563507 41.33174988 75.21595764 42.42912476 75.22659302 43.55975342 C75.22828372 55.42554941 74.42597746 67.84502509 66.140625 77.0703125 C55.34015771 87.07539654 42.51400618 86.65832775 28.56445312 86.17919922 C23.505976 85.82572224 19.38062334 84.49201829 15 82 C14.26910156 81.61070312 13.53820312 81.22140625 12.78515625 80.8203125 C6.08351585 76.60214778 2.28957354 69.28090616 0.4365387 61.69258118 C-0.0400212 58.75314829 -0.11990196 55.99421539 -0.11352539 53.01635742 C-0.11344986 51.83551071 -0.11337433 50.654664 -0.11329651 49.43803406 C-0.10813522 48.17328751 -0.10297394 46.90854095 -0.09765625 45.60546875 C-0.0962413 44.30297684 -0.09482635 43.00048492 -0.09336853 41.65852356 C-0.08956355 38.20783546 -0.07975064 34.75718992 -0.06866455 31.30651855 C-0.05840689 27.78052343 -0.0538616 24.25452139 -0.04882812 20.72851562 C-0.03812644 13.81899124 -0.02054612 6.90950205 0 0 Z " fill="#293183" transform="translate(285,469)"/>
<path d="M0 0 C5.28 0 10.56 0 16 0 C16.38518799 1.06581299 16.77037598 2.13162598 17.16723633 3.22973633 C19.04594949 8.42509422 20.92865885 13.61899957 22.8125 18.8125 C23.16070801 19.77275085 23.50891602 20.73300171 23.86767578 21.72235107 C28.28844979 33.90435776 32.7558741 46.0678343 37.29296875 58.20703125 C37.94613823 59.95506798 37.94613823 59.95506798 38.61250305 61.73841858 C40.75432438 67.46670576 42.90133761 73.19299786 45.05395508 78.91723633 C45.83810937 81.00990741 46.62221041 83.10259844 47.40625 85.1953125 C47.77111008 86.16100662 48.13597015 87.12670074 48.5118866 88.12165833 C48.84118668 89.00206284 49.17048676 89.88246735 49.50976562 90.78955078 C49.94367615 91.94283371 49.94367615 91.94283371 50.38635254 93.11941528 C51 95 51 95 51 97 C44.07 97 37.14 97 30 97 C27.69 90.73 25.38 84.46 23 78 C12.77 78 2.54 78 -8 78 C-10.26157932 83.87766654 -10.26157932 83.87766654 -12.51733398 89.75756836 C-12.79907471 90.48596924 -13.08081543 91.21437012 -13.37109375 91.96484375 C-13.65911865 92.7137085 -13.94714355 93.46257324 -14.24389648 94.23413086 C-15 96 -15 96 -16 97 C-17.4887186 97.08669432 -18.981445 97.10703494 -20.47265625 97.09765625 C-21.37177734 97.09443359 -22.27089844 97.09121094 -23.19726562 97.08789062 C-24.61555664 97.07532227 -24.61555664 97.07532227 -26.0625 97.0625 C-27.01189453 97.05798828 -27.96128906 97.05347656 -28.93945312 97.04882812 C-31.29303369 97.03700109 -33.64647581 97.01968094 -36 97 C-33.76441287 89.03065019 -30.96514659 81.32793982 -28.02734375 73.59375 C-27.53964828 72.30279709 -27.05223307 71.01173827 -26.56507874 69.72058105 C-25.28475603 66.32975311 -24.00026471 62.94051895 -22.71496582 59.55157471 C-21.69500785 56.86011238 -20.6780859 54.16750838 -19.66132164 51.47483826 C-13.1724795 34.29142204 -6.61403293 17.13565222 0 0 Z M6 31 C4.85543097 34.78872135 3.71625345 38.57901747 2.58203125 42.37084961 C2.00545178 44.29431293 1.42462069 46.21650011 0.84375 48.13867188 C0.4828125 49.34716797 0.121875 50.55566406 -0.25 51.80078125 C-0.58515625 52.91622314 -0.9203125 54.03166504 -1.265625 55.1809082 C-2.12604377 57.99832315 -2.12604377 57.99832315 -2 61 C4.27 61 10.54 61 17 61 C15.39218839 53.63777506 15.39218839 53.63777506 13.2734375 46.52734375 C12.9640625 45.60888672 12.6546875 44.69042969 12.3359375 43.74414062 C12.01882812 42.81794922 11.70171875 41.89175781 11.375 40.9375 C11.05015625 39.97650391 10.7253125 39.01550781 10.390625 38.02539062 C9.59788808 35.68215356 8.80095424 33.34043824 8 31 C7.34 31 6.68 31 6 31 Z " fill="#293183" transform="translate(36,630)"/>
<path d="M0 0 C5.94 0 11.88 0 18 0 C18 34.98 18 69.96 18 106 C12.06 106 6.12 106 0 106 C-0.33 104.68 -0.66 103.36 -1 102 C-1.70125 102.61875 -2.4025 103.2375 -3.125 103.875 C-8.35200373 107.73843754 -13.57865912 108.73956943 -20 108 C-27.40710333 106.45631297 -34.10212984 103.10409022 -38.5390625 96.8203125 C-44.35436147 86.72005639 -46.4908446 75.76632698 -43.72265625 64.30859375 C-41.4472142 57.03947888 -37.5439782 49.89481237 -30.9765625 45.7109375 C-24.22541802 42.2224279 -17.25608447 40.59958995 -9.7421875 42.6015625 C-6.55251638 43.76679291 -3.82797689 45.11468208 -1 47 C-0.67 31.49 -0.34 15.98 0 0 Z M-23 64 C-25.75276297 68.86321459 -26.95080607 73.45363128 -26 79 C-24.26580474 84.11867311 -21.87793493 88.3984347 -17 91 C-13.0083004 91.85697506 -9.62927361 91.85850187 -5.96875 89.9296875 C-1.51958325 86.47969803 0.99508001 82.5479958 2 77 C2 70.65690791 0.20535666 65.82879228 -4 61 C-10.82758215 56.67821089 -17.75231983 58.127596 -23 64 Z " fill="#293183" transform="translate(131,621)"/>
<path d="M0 0 C6.69900146 4.90392922 11.53945582 12.79734783 13 21 C13.84377488 33.40764044 13.07795278 43.41511459 4.9375 53.4375 C-0.62681044 59.1939988 -7.08204893 61.95295295 -15.0625 62.5 C-19.84335962 61.89290671 -26.43805637 60.56194363 -30 57 C-30.33 68.55 -30.66 80.1 -31 92 C-37.27 92 -43.54 92 -50 92 C-50 60.98 -50 29.96 -50 -2 C-43.73 -2 -37.46 -2 -31 -2 C-30.67 -1.01 -30.34 -0.02 -30 1 C-28.39125 0.0409375 -28.39125 0.0409375 -26.75 -0.9375 C-18.07712803 -6.10786598 -8.57454187 -4.79207398 0 0 Z M-30 18 C-32.75276297 22.86321459 -33.95080607 27.45363128 -33 33 C-31.26580474 38.11867311 -28.87793493 42.3984347 -24 45 C-19.76432084 45.67122784 -16.20212189 45.45413494 -12.1875 43.9375 C-7.63264159 39.90319683 -5.37869431 35.0419211 -4.90234375 29.046875 C-5.1542217 23.76751321 -7.13393726 19.99280363 -10.5625 16.0625 C-14.33219886 12.87275481 -16.85211346 12.59030389 -21.6796875 12.66015625 C-25.59578683 13.23372635 -27.42068618 15.11362501 -30 18 Z " fill="#293183" transform="translate(1011,667)"/>
<path d="M0 0 C0.721875 0.5775 1.44375 1.155 2.1875 1.75 C0.56565499 5.33513106 -1.60506239 8.33992323 -3.9375 11.5 C-4.66195313 12.48484375 -5.38640625 13.4696875 -6.1328125 14.484375 C-6.96425781 15.60585938 -6.96425781 15.60585938 -7.8125 16.75 C-10.27083333 15.52083333 -12.72916667 14.29166667 -15.1875 13.0625 C-19.07540261 11.65481112 -20.90125382 11.56753022 -24.8125 12.75 C-27.22371859 14.70633975 -27.22371859 14.70633975 -26.9375 18.375 C-26.89625 19.48875 -26.855 20.6025 -26.8125 21.75 C-25.99523438 22.00652344 -25.17796875 22.26304687 -24.3359375 22.52734375 C-13.37603183 26.33050392 -2.25071268 30.54945678 4.1875 40.75 C6.70967602 48.31652807 6.5436435 59.08833945 3.1875 66.375 C-1.01723935 73.30045305 -7.06685489 78.36998707 -14.71875 81.0859375 C-26.03594547 83.5151335 -37.80011771 82.89742013 -47.8125 76.75 C-50.67815771 74.58959761 -53.30157364 72.3126219 -55.8125 69.75 C-55.33362335 64.98735403 -53.31761358 62.52358348 -50.25 58.9375 C-49.42371094 57.96167969 -48.59742188 56.98585938 -47.74609375 55.98046875 C-47.10800781 55.24441406 -46.46992187 54.50835938 -45.8125 53.75 C-42.38607725 55.36907888 -39.51647936 57.36193531 -36.49609375 59.62890625 C-33.64999878 61.52410174 -31.13859755 61.88759885 -27.8125 61.875 C-26.7915625 61.87886719 -26.7915625 61.87886719 -25.75 61.8828125 C-23.59375219 61.81631126 -23.59375219 61.81631126 -20.8125 60.75 C-20.5082344 59.34013562 -20.24529092 57.92131189 -20 56.5 C-19.84917969 55.71109375 -19.69835938 54.9221875 -19.54296875 54.109375 C-19.5923323 51.54313986 -19.5923323 51.54313986 -21.87890625 49.62890625 C-25.02620996 47.61312318 -28.07705956 46.28133093 -31.5625 44.9375 C-39.24283073 41.81840492 -47.35458217 37.74643499 -50.8125 29.75 C-53.1034067 21.99364446 -52.28785987 14.00122078 -48.8125 6.75 C-45.1550572 0.51018092 -41.03563549 -3.55104604 -34.03515625 -5.828125 C-22.65142741 -7.98883276 -9.79118949 -6.40545107 0 0 Z " fill="#293183" transform="translate(1197.8125,473.25)"/>
<path d="M0 0 C2.86328125 2.140625 2.86328125 2.140625 5 4 C3.59601721 8.10110762 1.62912962 10.98089159 -1.125 14.3125 C-1.84945312 15.19550781 -2.57390625 16.07851563 -3.3203125 16.98828125 C-3.87460937 17.65214844 -4.42890625 18.31601562 -5 19 C-5.64066406 18.62746094 -6.28132813 18.25492187 -6.94140625 17.87109375 C-11.20431663 15.53951683 -14.06575532 14 -19 14 C-22.27773504 14.75150023 -22.27773504 14.75150023 -24 18 C-24.10860082 20.55781661 -24.10860082 20.55781661 -23 23 C-20.60404322 24.74561248 -20.60404322 24.74561248 -17.5625 26 C-16.4796875 26.50273437 -15.396875 27.00546875 -14.28125 27.5234375 C-13.1984375 28.01070313 -12.115625 28.49796875 -11 29 C-2.36692243 33.10308357 3.62034179 36.24068357 8 45 C10.46889172 52.8777137 9.57955679 61.63826999 6 69 C1.84625547 76.15582781 -3.43315148 80.43548253 -11.23828125 83.109375 C-21.46232862 85.53002173 -33.79602302 85.44520998 -43 80 C-46.55856706 77.20604397 -49.82630192 74.22188873 -53 71 C-51.59601721 66.89889238 -49.62912962 64.01910841 -46.875 60.6875 C-46.15054687 59.80449219 -45.42609375 58.92148437 -44.6796875 58.01171875 C-44.12539063 57.34785156 -43.57109375 56.68398438 -43 56 C-39.89170368 57.46859872 -37.11727873 59.23478759 -34.25 61.125 C-29.42730326 64.03426691 -26.57150124 64.8645433 -21 64 C-18.38239295 63.20426487 -18.38239295 63.20426487 -17 61 C-16.81836545 59.01736738 -16.81836545 59.01736738 -16.90625 56.875 C-16.9371875 55.59625 -16.968125 54.3175 -17 53 C-18.0621875 52.48050781 -19.124375 51.96101562 -20.21875 51.42578125 C-44.79335743 39.33166957 -44.79335743 39.33166957 -48 31 C-48.98723487 21.58489693 -48.97517038 12.81811449 -43 5 C-31.89452159 -7.20006355 -14.28574705 -6.52832446 0 0 Z " fill="#293183" transform="translate(423,471)"/>
<path d="M0 0 C40.88888889 0 40.88888889 0 50.4375 6.25 C57.76051041 14.10884044 58.37291473 22.71457811 58.21875 33.00390625 C57.94894074 40.22299031 55.6763154 46.43897628 51 52 C41.04368179 59.98279411 31.93362256 59 19 59 C19 70.55 19 82.1 19 94 C12.73 94 6.46 94 0 94 C0 62.98 0 31.96 0 0 Z M19 16 C19 24.91 19 33.82 19 43 C28.88266246 43.16069984 28.88266246 43.16069984 36.875 38.375 C39.12746184 33.61980277 39.37268563 28.7956671 38.3125 23.6875 C36.87862861 20.75147763 35.55573899 19.02955743 33 17 C28.0702801 15.59577396 28.0702801 15.59577396 19 16 Z " fill="#293183" transform="translate(333,633)"/>
<path d="M0 0 C1 1 1 1 1.11352539 3.31665039 C1.10828857 4.31688232 1.10305176 5.31711426 1.09765625 6.34765625 C1.09443359 7.42724609 1.09121094 8.50683594 1.08789062 9.61914062 C1.07532227 11.32360352 1.07532227 11.32360352 1.0625 13.0625 C1.05798828 14.20267578 1.05347656 15.34285156 1.04882812 16.51757812 C1.03699747 19.34510351 1.0205141 22.1725264 1 25 C0.38511719 24.57847656 -0.22976563 24.15695312 -0.86328125 23.72265625 C-1.67152344 23.17480469 -2.47976563 22.62695312 -3.3125 22.0625 C-4.11300781 21.51722656 -4.91351562 20.97195313 -5.73828125 20.41015625 C-11.05289945 17.09655147 -16.93456716 17.42157462 -23 18 C-28.91948057 20.85403527 -33.04282832 25.64671221 -35.453125 31.79296875 C-37.44438421 39.82912198 -36.76275115 47.72726978 -32.609375 54.90234375 C-28.9624124 59.65578773 -24.47045572 61.98842333 -18.625 63.0625 C-13.28267178 63.40567039 -8.62163475 61.56942871 -4 59 C-2.99293313 58.00711717 -1.99126687 57.00865752 -1 56 C-0.34 56 0.32 56 1 56 C1 63.92 1 71.84 1 80 C-11.87895317 84.6832557 -11.87895317 84.6832557 -19.5 84.5 C-20.32024658 84.48791504 -21.14049316 84.47583008 -21.9855957 84.46337891 C-34.71804559 84.04831337 -43.47400849 78.86485225 -52.1875 69.875 C-61.30673403 59.28376362 -62.93585481 46.45785578 -62 33 C-59.52813868 20.27344543 -53.70913019 9.51811012 -43 2 C-29.6401758 -5.36714586 -13.90167945 -6.96482532 0 0 Z " fill="#293183" transform="translate(588,471)"/>
<path d="M0 0 C1 1 1 1 1.11352539 3.31665039 C1.10828857 4.31688232 1.10305176 5.31711426 1.09765625 6.34765625 C1.09443359 7.42724609 1.09121094 8.50683594 1.08789062 9.61914062 C1.07532227 11.32360352 1.07532227 11.32360352 1.0625 13.0625 C1.05798828 14.20267578 1.05347656 15.34285156 1.04882812 16.51757812 C1.03699747 19.34510351 1.0205141 22.1725264 1 25 C0.38511719 24.57847656 -0.22976562 24.15695312 -0.86328125 23.72265625 C-1.67152344 23.17480469 -2.47976562 22.62695312 -3.3125 22.0625 C-4.11300781 21.51722656 -4.91351563 20.97195313 -5.73828125 20.41015625 C-10.84780821 17.22442355 -16.16870603 17.56432861 -22 18 C-27.89798006 19.78052228 -30.93502351 23.86949588 -34 29 C-36.6164099 35.54102476 -37.07414291 42.39744446 -34.875 49.125 C-32.69480055 54.18185151 -29.821302 58.4796317 -24.890625 61.13671875 C-18.3453198 63.63070573 -13.1952017 63.32631014 -6.6875 60.625 C-4.37696212 59.22793058 -2.83651048 57.928336 -1 56 C-0.34 56 0.32 56 1 56 C1 63.92 1 71.84 1 80 C-11.88095822 84.68398481 -11.88095822 84.68398481 -19.5 84.5 C-20.32097168 84.48718994 -21.14194336 84.47437988 -21.98779297 84.46118164 C-34.63463718 84.04045247 -43.64972388 78.87548382 -52.25 69.75 C-60.03444316 60.08431641 -63.16098155 47.22658696 -62 35 C-59.72607761 21.60517593 -54.59919957 11.6734729 -44 3 C-30.70226703 -5.44960116 -14.20910765 -7.1188487 0 0 Z " fill="#293183" transform="translate(179,471)"/>
<path d="M0 0 C8.25 0 16.5 0 25 0 C25 8.91 25 17.82 25 27 C29.62 27 34.24 27 39 27 C39 33.93 39 40.86 39 48 C34.38 48 29.76 48 25 48 C25 68.79 25 89.58 25 111 C16.75 111 8.5 111 0 111 C0 90.21 0 69.42 0 48 C-2.64 48 -5.28 48 -8 48 C-8 41.07 -8 34.14 -8 27 C-5.36 27 -2.72 27 0 27 C0 18.09 0 9.18 0 0 Z " fill="#293183" transform="translate(446,442)"/>
<path d="M0 0 C6.51554061 5.53646116 10.38988259 12.19076989 11.34643555 20.80712891 C11.94667287 31.58580425 11.18048896 40.60203876 4.625 49.5625 C-1.11443765 55.75698258 -9.90159917 59.29045489 -18.19921875 60.015625 C-28.30032818 60.21597758 -37.2044507 57.58839633 -44.875 50.8125 C-52.84353255 41.29121272 -53.67339888 31.86891612 -53.0703125 19.92529297 C-52.37167536 12.36778572 -48.56025644 5.75400892 -42.875 0.8125 C-30.10913864 -8.0928133 -12.96257972 -9.41560517 0 0 Z M-32.625 16.9375 C-35.05648608 22.52991799 -35.47429775 27.7815465 -33.75 33.625 C-31.45839405 37.52073011 -28.97966966 40.76016517 -24.875 42.8125 C-20.16723 43.20481417 -17.80420303 43.28586758 -13.5625 41.125 C-9.27000501 37.4314578 -7.79886005 34.48747508 -7 28.9375 C-6.65872518 24.15254269 -7.40376384 21.01360147 -9.875 16.8125 C-12.37458655 13.97790517 -12.37458655 13.97790517 -14.875 11.8125 C-15.205 11.4825 -15.535 11.1525 -15.875 10.8125 C-23.59548748 9.94037086 -27.59366167 10.82801774 -32.625 16.9375 Z " fill="#293183" transform="translate(876.875,669.1875)"/>
<path d="M0 0 C7.90323567 8.65592479 9.625 18.53295386 9.625 29.875 C-3.575 29.875 -16.775 29.875 -30.375 29.875 C-28.50699958 38.49586746 -28.50699958 38.49586746 -23.375 43.875 C-19.88669873 45.28917619 -18.39643923 44.88165355 -14.75 43.75 C-11.1279207 41.73773372 -10.28889614 40.41280802 -8.375 36.875 C-5.91604382 37.18311738 -3.45791693 37.49628988 -1 37.8125 C-0.30132812 37.89951172 0.39734375 37.98652344 1.1171875 38.07617188 C6.3984375 38.76171875 6.3984375 38.76171875 8.625 39.875 C8.28642277 45.29223567 5.20346674 49.04037404 1.625 52.875 C-5.9997041 59.13197368 -14.70034381 60.79848991 -24.375 59.875 C-32.25649189 58.45394313 -38.89719944 55.30853202 -43.91015625 48.91796875 C-50.66208658 38.62275137 -50.99718 26.34530517 -48.72265625 14.46875 C-46.16606662 6.65633878 -41.59102883 0.31577938 -34.25 -3.5625 C-22.80863711 -8.85591063 -10.34317984 -6.51237249 0 0 Z M-26.375 9.875 C-28.98191129 13.26398468 -29.375 14.50234613 -29.375 18.875 C-22.445 18.875 -15.515 18.875 -8.375 18.875 C-9.45354269 13.48228656 -10.51299586 11.65118182 -14.375 7.875 C-19.25817919 6.1087437 -22.11947757 7.03798505 -26.375 9.875 Z " fill="#293183" transform="translate(443.375,669.125)"/>
<path d="M0 0 C6.38087799 5.1606304 9.01621368 11.8221101 10.48828125 19.72265625 C10.83706474 23.2573427 10.75 26.82314721 10.75 30.375 C-2.45 30.375 -15.65 30.375 -29.25 30.375 C-27.38199958 38.99586746 -27.38199958 38.99586746 -22.25 44.375 C-18.76169873 45.78917619 -17.27143923 45.38165355 -13.625 44.25 C-10.0029207 42.23773372 -9.16389614 40.91280802 -7.25 37.375 C-4.79104382 37.68311738 -2.33291693 37.99628988 0.125 38.3125 C0.82367188 38.39951172 1.52234375 38.48652344 2.2421875 38.57617188 C7.5234375 39.26171875 7.5234375 39.26171875 9.75 40.375 C9.41142277 45.79223567 6.32846674 49.54037404 2.75 53.375 C-4.8747041 59.63197368 -13.57534381 61.29848991 -23.25 60.375 C-31.142268 58.95200016 -37.71699992 55.79799247 -42.78515625 49.453125 C-49.48007756 39.38146496 -49.87130498 26.66598477 -47.59765625 15.0390625 C-45.03556546 7.18784867 -40.50607329 0.83693495 -33.125 -3.0625 C-22.31541762 -8.06361384 -9.71902157 -6.53990236 0 0 Z M-25.25 10.375 C-27.85691129 13.76398468 -28.25 15.00234613 -28.25 19.375 C-21.32 19.375 -14.39 19.375 -7.25 19.375 C-8.27822533 13.20564802 -8.56526449 12.01868317 -13.25 8.375 C-18.17147409 6.69960456 -20.97094585 7.52229723 -25.25 10.375 Z " fill="#293183" transform="translate(234.25,668.625)"/>
<path d="M0 0 C6.43972019 5.12277929 9.79561567 11.6980877 11.76953125 19.59375 C11.76953125 23.55375 11.76953125 27.51375 11.76953125 31.59375 C-1.10046875 31.59375 -13.97046875 31.59375 -27.23046875 31.59375 C-25.72370539 40.3398229 -25.72370539 40.3398229 -20.23046875 45.59375 C-16.86876117 46.97291208 -15.59982688 46.72943258 -12.16796875 45.46875 C-9.10089351 43.79922872 -9.10089351 43.79922872 -7.5234375 40.9375 C-5.23046875 38.59375 -5.23046875 38.59375 -1.62890625 38.5078125 C-0.28315985 38.71709196 1.05837225 38.95510177 2.39453125 39.21875 C3.07515625 39.32832031 3.75578125 39.43789063 4.45703125 39.55078125 C7.06146716 39.98828531 9.39535508 40.40666192 11.76953125 41.59375 C10.30214 48.11548889 6.2822757 52.95725306 1 56.921875 C-6.78320396 61.63044986 -14.97797021 62.71938892 -23.8125 61.12890625 C-31.90622599 59.02777001 -38.59429679 54.70741804 -43.19921875 47.62890625 C-48.56046167 37.04857458 -48.36557943 25.59782487 -45.2734375 14.390625 C-42.79391763 7.74142565 -38.08049992 2.53127098 -32.23046875 -1.40625 C-21.82660262 -5.88569236 -9.79700315 -6.17674454 0 0 Z M-24.23046875 12.59375 C-26.55577819 16.34944282 -26.55577819 16.34944282 -27.23046875 20.59375 C-19.97046875 20.59375 -12.71046875 20.59375 -5.23046875 20.59375 C-7.00553769 13.40047771 -7.00553769 13.40047771 -12.23046875 9.59375 C-17.56448379 7.77791509 -20.04470615 8.96608908 -24.23046875 12.59375 Z " fill="#293183" transform="translate(591.23046875,667.40625)"/>
<path d="M0 0 C3.3 0 6.6 0 10 0 C14.95 12.87 19.9 25.74 25 39 C29.62 26.13 34.24 13.26 39 0 C42.3 0 45.6 0 49 0 C51.55007331 15.48303772 54.05490384 30.97123084 56.3125 46.5 C56.48362305 47.65467773 56.65474609 48.80935547 56.83105469 49.99902344 C57.60215068 55.38707671 58.2111805 60.5562361 58 66 C53.71 66 49.42 66 45 66 C43.35 54.12 41.7 42.24 40 30 C36.09439346 41.09886179 36.09439346 41.09886179 32.19165039 52.19873047 C31.70208962 53.58825277 31.21243159 54.97774081 30.72265625 56.3671875 C30.46867065 57.09107666 30.21468506 57.81496582 29.95300293 58.56079102 C28.1140718 63.7718564 28.1140718 63.7718564 27 66 C25.02 66 23.04 66 21 66 C17.04 54.45 13.08 42.9 9 31 C7.83174216 36.25716028 6.72652757 41.28070045 5.9296875 46.56640625 C5.75566406 47.71044922 5.58164062 48.85449219 5.40234375 50.03320312 C5.22832031 51.19787109 5.05429687 52.36253906 4.875 53.5625 C4.69324219 54.76197266 4.51148438 55.96144531 4.32421875 57.19726562 C3.88005349 60.13109404 3.43964288 63.06549048 3 66 C-1.29 66 -5.58 66 -10 66 C-9.39729073 57.56762515 -8.36024817 49.34508937 -6.93359375 41.015625 C-6.73524429 39.83401794 -6.53689484 38.65241089 -6.33253479 37.43499756 C-5.70546999 33.70586978 -5.07160613 29.97793621 -4.4375 26.25 C-4.00801123 23.70320124 -3.57897055 21.15632686 -3.15039062 18.609375 C-2.10543492 12.4053645 -1.05438507 6.20241462 0 0 Z " fill="#293183" transform="translate(466,811)"/>
<path d="M0 0 C5.94 0 11.88 0 18 0 C18.04898438 2.58972656 18.09796875 5.17945313 18.1484375 7.84765625 C18.2025433 10.37302113 18.25981295 12.89829598 18.31738281 15.42358398 C18.35551913 17.17025973 18.39039802 18.91700991 18.421875 20.66381836 C18.46786087 23.18370046 18.52579747 25.7030769 18.5859375 28.22265625 C18.59748871 28.99585709 18.60903992 29.76905792 18.62094116 30.56568909 C18.76679601 35.9994659 19.28219703 41.19726884 22.1875 45.9375 C25.2018727 47.70454606 27.59986784 47.41756009 31 47 C33.90717073 44.78136971 34.83981643 43.48055071 36 40 C36.11235161 38.66548737 36.17575649 37.32645611 36.20532227 35.98754883 C36.22526749 35.18694534 36.24521271 34.38634186 36.26576233 33.56147766 C36.28247482 32.70201035 36.29918732 31.84254303 36.31640625 30.95703125 C36.33718735 30.0734343 36.35796844 29.18983734 36.37937927 28.27946472 C36.44475754 25.45722215 36.50370528 22.63488665 36.5625 19.8125 C36.60569637 17.89907894 36.64931102 15.98566727 36.69335938 14.07226562 C36.80121406 9.38160428 36.90037461 4.69087227 37 0 C42.94 0 48.88 0 55 0 C55.09936145 6.38626642 55.17170145 12.77207635 55.21972656 19.15893555 C55.23976081 21.32861171 55.26699612 23.49823443 55.30175781 25.66772461 C55.350637 28.798149 55.37305125 31.92785548 55.390625 35.05859375 C55.41127014 36.01833603 55.43191528 36.97807831 55.45318604 37.96690369 C55.45552564 45.09337971 54.23811633 51.49887116 49.25909424 56.88230896 C42.15952919 63.39015845 34.23448041 64.32929392 24.875 64.21484375 C17.55174862 63.66758991 10.20596022 61.38595353 5 56 C0.15258136 48.71409333 -0.14567172 41.61554322 -0.09765625 33.10546875 C-0.0962413 32.15811356 -0.09482635 31.21075836 -0.09336853 30.23469543 C-0.08778611 27.21893105 -0.07523682 24.20324182 -0.0625 21.1875 C-0.05748273 19.13867295 -0.05292022 17.08984473 -0.04882812 15.04101562 C-0.03782243 10.02731494 -0.02056988 5.0136702 0 0 Z " fill="#293183" transform="translate(895,665)"/>
<path d="M0 0 C18.15 0 36.3 0 55 0 C54.14875285 3.4049886 53.60508865 4.90121544 51.74682617 7.66357422 C51.04555855 8.71519241 51.04555855 8.71519241 50.3301239 9.78805542 C49.5692321 10.9100383 49.5692321 10.9100383 48.79296875 12.0546875 C48.27116531 12.83385529 47.74936188 13.61302307 47.21174622 14.415802 C45.54238401 16.90586764 43.86509518 19.39047552 42.1875 21.875 C41.06913103 23.54000842 39.95128652 25.20536925 38.83398438 26.87109375 C36.35598322 30.56357785 33.87296714 34.25262961 31.38542175 37.93869019 C29.58277849 40.62076606 27.79255329 43.31117007 26 46 C34.91 46 43.82 46 53 46 C53 51.28 53 56.56 53 62 C33.86 62 14.72 62 -5 62 C-3.56851658 58.42129144 -2.46877607 55.95483937 -0.40209961 52.86816406 C0.11506119 52.09096008 0.63222198 51.3137561 1.16505432 50.51300049 C1.72031296 49.68886658 2.27557159 48.86473267 2.84765625 48.015625 C3.70549965 46.73132599 3.70549965 46.73132599 4.58067322 45.42108154 C5.78641858 43.61766365 6.99435835 41.81571123 8.2043457 40.01513672 C10.06331232 37.24879118 11.91602689 34.47834418 13.76757812 31.70703125 C14.93974565 29.95548919 16.11225963 28.20417892 17.28515625 26.453125 C17.84243912 25.62089417 18.39972198 24.78866333 18.97389221 23.93121338 C19.48790085 23.16661804 20.00190948 22.40202271 20.53149414 21.61425781 C20.98512833 20.93872864 21.43876251 20.26319946 21.90614319 19.56719971 C23 18 23 18 24 17 C16.08 16.67 8.16 16.34 0 16 C0 10.72 0 5.44 0 0 Z " fill="#293183" transform="translate(488,665)"/>
<path d="M0 0 C8.25 0 16.5 0 25 0 C25 27.72 25 55.44 25 84 C16.75 84 8.5 84 0 84 C0 56.28 0 28.56 0 0 Z " fill="#293183" transform="translate(1216,469)"/>
<path d="M0 0 C7.92 0 15.84 0 24 0 C24 27.72 24 55.44 24 84 C16.08 84 8.16 84 0 84 C0 56.28 0 28.56 0 0 Z " fill="#293183" transform="translate(491,469)"/>
<path d="M0 0 C5.94 0 11.88 0 18 0 C18 34.98 18 69.96 18 106 C12.06 106 6.12 106 0 106 C0 71.02 0 36.04 0 0 Z " fill="#293183" transform="translate(460,621)"/>
<path d="M0 0 C5.94 0 11.88 0 18 0 C18 34.98 18 69.96 18 106 C12.06 106 6.12 106 0 106 C0 71.02 0 36.04 0 0 Z " fill="#293183" transform="translate(161,621)"/>
<path d="M0 0 C8.88259022 7.87320497 12.06031848 16.96699524 12.91015625 28.63671875 C13.3191764 39.68026284 10.8313402 50.75922886 3.75 59.4375 C-0.4658189 63.60616209 -4.439794 64.75805331 -10.3125 65 C-16.70105071 64.6865994 -20.34802492 63.29731564 -24.86328125 58.84765625 C-32.44894225 49.94438664 -34.04279944 38.54900552 -33.5703125 27.2421875 C-32.7380653 17.35671464 -29.84726583 8.34773415 -22.3125 1.5625 C-15.18140163 -3.38560907 -7.82095978 -3.76007682 0 0 Z M-17.21484375 13.6328125 C-21.90844274 21.81561528 -21.51798038 33.79041214 -19.4921875 42.8125 C-17.88167924 47.58061895 -16.71390439 50.78812163 -12.25 53.4375 C-9.18503351 53.76044477 -9.18503351 53.76044477 -6.25 52.4375 C-0.08735698 44.04945811 0.53895307 34.56037474 -0.25 24.4375 C-1.29681494 18.79845312 -2.76445109 13.28225621 -7.25 9.4375 C-12.0867013 8.30550608 -14.34001234 9.62098989 -17.21484375 13.6328125 Z " fill="#293183" transform="translate(722.25,813.5625)"/>
<path d="M0 0 C2.97 1.98 5.94 3.96 9 6 C8.1458344 9.41666238 7.5959547 10.9097374 5.71484375 13.671875 C5.26689453 14.33574219 4.81894531 14.99960937 4.35742188 15.68359375 C3.88884766 16.36550781 3.42027344 17.04742188 2.9375 17.75 C2.46505859 18.44738281 1.99261719 19.14476562 1.50585938 19.86328125 C0.34242719 21.57904993 -0.82809974 23.29000398 -2 25 C-1.34773437 24.95359375 -0.69546875 24.9071875 -0.0234375 24.859375 C5.89871862 24.61480218 9.4208348 24.84680365 14 29 C19.28694942 35.32135257 20.42793372 40.31434526 20.3359375 48.56640625 C19.74217559 54.63520531 17.7231095 59.70601865 12.9921875 63.69140625 C5.9027808 68.28251649 -0.66876571 68.69097915 -9 68 C-15.17232455 66.34740988 -19.65097619 62.3694185 -23 57 C-26.23722358 49.82440303 -25.2266913 41.79833738 -22.55078125 34.58984375 C-19.52262077 27.24587257 -14.82815783 20.92308126 -10.3125 14.4375 C-9.42296361 13.14317184 -8.53428508 11.84825368 -7.64648438 10.55273438 C-1.2595881 1.2595881 -1.2595881 1.2595881 0 0 Z M-10 39 C-12.32451285 42.78427519 -12.20390915 45.51237674 -11.609375 49.80859375 C-10.65050227 53.2568476 -8.8174758 54.90327382 -6 57 C-3.40139925 58.2180941 -2.30656531 58.06897719 0.5 57.4375 C3.94800194 55.45489888 5.22355191 53.55289618 7 50 C7.696715 46.04420705 7.37372526 42.81863629 5.6875 39.125 C3.41761904 36.26663138 1.76554847 35.09985415 -1.875 34.625 C-5.76603288 35.09192395 -7.25334345 36.25334345 -10 39 Z " fill="#293183" transform="translate(810,810)"/>
<path d="M0 0 C4.35554338 3.07922637 6.87681426 6.75544279 8.5625 11.8125 C9.82281433 22.00668807 7.3673463 29.60182693 1.10058594 37.70214844 C-2.28718341 41.86743862 -5.83949064 45.81471182 -9.4375 49.8125 C-3.1675 50.1425 3.1025 50.4725 9.5625 50.8125 C9.5625 54.7725 9.5625 58.7325 9.5625 62.8125 C-4.6275 62.8125 -18.8175 62.8125 -33.4375 62.8125 C-31.1907097 57.19552425 -31.1907097 57.19552425 -28.75 54.31640625 C-28.22067871 53.68202637 -27.69135742 53.04764648 -27.14599609 52.39404297 C-26.58219238 51.72775879 -26.01838867 51.06147461 -25.4375 50.375 C-21.05934078 45.09362422 -16.8043726 39.76808329 -12.8125 34.1875 C-12.41160156 33.63263916 -12.01070312 33.07777832 -11.59765625 32.50610352 C-7.45411498 26.64587601 -4.76006021 22.12884969 -5.4375 14.8125 C-5.81381112 12.39031883 -5.81381112 12.39031883 -7.4375 10.8125 C-11.93987547 9.50616354 -11.93987547 9.50616354 -16.25 10.8125 C-17.94171819 13.66170959 -18.65220318 16.61090528 -19.4375 19.8125 C-24.0575 19.8125 -28.6775 19.8125 -33.4375 19.8125 C-32.45880431 11.98293448 -31.23137811 6.40043458 -25.4375 0.8125 C-17.58413698 -4.05658507 -8.16430754 -4.7637892 0 0 Z " fill="#293183" transform="translate(675.4375,814.1875)"/>
<path d="M0 0 C4.71395368 4.71395368 6.89295696 8.85050796 7.06640625 15.57421875 C6.55854284 26.60870565 1.02173942 33.3172945 -5.9140625 41.51953125 C-7.68141364 43.62115668 -9.3524171 45.8032228 -11 48 C-5.06 48.33 0.88 48.66 7 49 C7 52.96 7 56.92 7 61 C-7.19 61 -21.38 61 -36 61 C-34.07341685 57.1468337 -31.80286099 54.07286929 -29.125 50.75 C-28.13553481 49.50224002 -27.14730091 48.25350288 -26.16015625 47.00390625 C-25.64469238 46.35180176 -25.12922852 45.69969727 -24.59814453 45.02783203 C-21.89578488 41.59889845 -19.21589325 38.15446862 -16.5625 34.6875 C-16.0670166 34.05489258 -15.5715332 33.42228516 -15.06103516 32.77050781 C-11.03375088 27.47311173 -6.93352452 21.52320066 -7.0625 14.6875 C-8.06543334 11.81242442 -8.72276613 10.04165795 -11 8 C-14 7.33333333 -14 7.33333333 -17 8 C-20.43509637 11.07974157 -20.18957796 13.13746778 -21 18 C-25.62 18 -30.24 18 -35 18 C-34.4274376 10.44217627 -33.49994947 5.10028931 -27.75 -0.25 C-19.20528296 -7.04652859 -8.54722367 -6.20092697 0 0 Z " fill="#293183" transform="translate(305,816)"/>
<path d="M0 0 C4.14254512 3.58765455 6.43239407 7.82661966 6.96484375 13.25 C7.43794899 28.51674213 -0.5725156 36.72827904 -10.30859375 47.46484375 C-10.63859375 47.79484375 -10.96859375 48.12484375 -11.30859375 48.46484375 C-5.03859375 48.79484375 1.23140625 49.12484375 7.69140625 49.46484375 C7.69140625 53.42484375 7.69140625 57.38484375 7.69140625 61.46484375 C-6.49859375 61.46484375 -20.68859375 61.46484375 -35.30859375 61.46484375 C-33.48588321 56.90806741 -32.12613896 54.80082026 -28.99609375 51.21484375 C-24.63568301 46.12047008 -20.46117587 40.90367107 -16.37109375 35.58984375 C-15.81574951 34.87666992 -15.26040527 34.16349609 -14.68823242 33.42871094 C-10.05753826 27.38491411 -6.66685163 22.34509732 -6.95703125 14.5234375 C-7.20324542 12.25146402 -7.20324542 12.25146402 -8.99609375 9.90234375 C-11.77448478 8.17523581 -13.10053783 7.806781 -16.30859375 8.46484375 C-19.43824882 11.47858567 -19.86014358 14.11949323 -21.30859375 18.46484375 C-25.59859375 18.46484375 -29.88859375 18.46484375 -34.30859375 18.46484375 C-35.03525286 11.77957996 -32.86190431 7.08928284 -29.30859375 1.46484375 C-21.65580195 -6.80844468 -8.73331123 -6.08685328 0 0 Z " fill="#293183" transform="translate(773.30859375,815.53515625)"/>
<path d="M0 0 C-0.11433363 2.25056722 -0.24186436 4.50046674 -0.375 6.75 C-0.44460938 8.00296875 -0.51421875 9.2559375 -0.5859375 10.546875 C-0.95323304 13.60998121 -1.39711286 15.41974266 -3 18 C-3.66 17.67 -4.32 17.34 -5 17 C-11.58674214 16.29090225 -11.58674214 16.29090225 -17.5 18.6875 C-20.85495102 23.85971616 -21.32460805 28.51429802 -21.4140625 34.58203125 C-21.43342865 35.39621017 -21.4527948 36.2103891 -21.4727478 37.04924011 C-21.53228752 39.63688852 -21.57882583 42.22458203 -21.625 44.8125 C-21.6632034 46.57228449 -21.7022565 48.33205074 -21.7421875 50.09179688 C-21.83955976 54.3944337 -21.91932992 58.69688818 -22 63 C-28.27 63 -34.54 63 -41 63 C-41 42.54 -41 22.08 -41 1 C-34.73 1 -28.46 1 -22 1 C-21.67 1.99 -21.34 2.98 -21 4 C-20.0925 3.360625 -19.185 2.72125 -18.25 2.0625 C-12.41387261 -1.64119623 -6.6755861 -1.84456984 0 0 Z " fill="#293183" transform="translate(651,664)"/>
<path d="M0 0 C3.96 0 7.92 0 12 0 C12.33 10.56 12.66 21.12 13 32 C14.32 31.01 15.64 30.02 17 29 C19.83984375 28.6015625 19.83984375 28.6015625 22.9375 28.625 C23.95714844 28.61726562 24.97679687 28.60953125 26.02734375 28.6015625 C29.50319242 29.06744498 31.2647026 29.80620817 34 32 C36.91063594 36.67974319 37.40999472 40.63658958 37.29296875 46.0234375 C37.28872391 46.76961334 37.28447906 47.51578918 37.28010559 48.28457642 C37.26342382 50.64843098 37.22579339 53.01140676 37.1875 55.375 C37.17243949 56.9856647 37.15875348 58.59634287 37.14648438 60.20703125 C37.11355504 64.13835515 37.06184762 68.06902901 37 72 C33.04 72 29.08 72 25 72 C24.98018066 71.13721436 24.96036133 70.27442871 24.93994141 69.38549805 C24.86180356 66.18163044 24.77510918 62.97814106 24.68261719 59.7746582 C24.6443565 58.38868093 24.60949844 57.00260535 24.578125 55.61645508 C24.53241301 53.6229836 24.47341075 51.62983086 24.4140625 49.63671875 C24.36693115 47.83787231 24.36693115 47.83787231 24.31884766 46.00268555 C24.21570506 42.82117294 24.21570506 42.82117294 22 40 C19 39.5 19 39.5 16 40 C11.9556212 46.06656819 12.70361836 53.79014407 12.4375 60.875 C12.39431641 61.94492187 12.35113281 63.01484375 12.30664062 64.1171875 C12.20107257 66.74465903 12.10008205 69.37231378 12 72 C8.04 72 4.08 72 0 72 C0 48.24 0 24.48 0 0 Z " fill="#293183" transform="translate(390,805)"/>
<path d="M0 0 C-0.28056438 2.64745321 -0.57385631 5.29237964 -0.875 7.9375 C-0.95363281 8.69224609 -1.03226562 9.44699219 -1.11328125 10.22460938 C-1.33883808 12.15919299 -1.66258974 14.08176019 -2 16 C-2.99 16.495 -2.99 16.495 -4 17 C-4.66 16.67 -5.32 16.34 -6 16 C-10.44569615 15.4672152 -13.94141734 15.43692412 -17.9375 17.5625 C-22.23617961 22.64275772 -22.31326524 28.97454498 -22.4140625 35.33984375 C-22.43342865 36.10680069 -22.4527948 36.87375763 -22.4727478 37.66395569 C-22.53202558 40.08836106 -22.57871911 42.51281528 -22.625 44.9375 C-22.66322762 46.59181638 -22.70228206 48.24611387 -22.7421875 49.90039062 C-22.83922447 53.93348957 -22.91920068 57.96641307 -23 62 C-28.94 62 -34.88 62 -41 62 C-41 41.54 -41 21.08 -41 0 C-35.06 0 -29.12 0 -23 0 C-22.67 1.32 -22.34 2.64 -22 4 C-21.0925 3.195625 -20.185 2.39125 -19.25 1.5625 C-13.37767905 -3.28319141 -6.87777226 -2.98469362 0 0 Z " fill="#293183" transform="translate(293,665)"/>
<path d="M0 0 C0.23268915 6.28260706 -0.59545452 11.88019467 -2 18 C-2.99 17.67 -3.98 17.34 -5 17 C-11.58633182 16.29624514 -11.58633182 16.29624514 -17.5 18.6875 C-20.85495102 23.85971616 -21.32460805 28.51429802 -21.4140625 34.58203125 C-21.43342865 35.39621017 -21.4527948 36.2103891 -21.4727478 37.04924011 C-21.53228752 39.63688852 -21.57882583 42.22458203 -21.625 44.8125 C-21.6632034 46.57228449 -21.7022565 48.33205074 -21.7421875 50.09179688 C-21.83955976 54.3944337 -21.91932992 58.69688818 -22 63 C-27.94 63 -33.88 63 -40 63 C-40 42.54 -40 22.08 -40 1 C-34.06 1 -28.12 1 -22 1 C-21.67 1.99 -21.34 2.98 -21 4 C-20.0925 3.360625 -19.185 2.72125 -18.25 2.0625 C-12.56151086 -1.54750272 -6.52109066 -2.08674901 0 0 Z " fill="#293183" transform="translate(823,664)"/>
<path d="M0 0 C3.1875 1.5 3.1875 1.5 5 3 C5.33 2.34 5.66 1.68 6 1 C9.96 1 13.92 1 18 1 C18 14.86 18 28.72 18 43 C14.04 43 10.08 43 6 43 C5.67 42.34 5.34 41.68 5 41 C4.175 41.495 3.35 41.99 2.5 42.5 C-2.29120361 44.55337298 -6.24989107 44.93003684 -11.1484375 43.2734375 C-17.26702132 40.47572073 -20.94372346 36.48296514 -23.4609375 30.1484375 C-25.37135538 22.5344532 -24.52467225 14.92780408 -21 8 C-18.625 5.1875 -18.625 5.1875 -16 3 C-15.29875 2.401875 -14.5975 1.80375 -13.875 1.1875 C-9.33198519 -0.68896264 -4.84347307 -0.56640315 0 0 Z M-8.875 13.6875 C-11.38641663 17.58055826 -11.38641663 17.58055826 -12 22 C-11.0496496 25.88059748 -9.95809962 29.24590725 -7 32 C-3.68190536 33.26006315 -3.68190536 33.26006315 0 33 C3.53267517 31.07237101 5.70840796 28.87477613 7 25 C7.53756448 19.30181648 6.60129241 16.44865533 3 12 C-1.68632379 9.65683811 -5.12338284 10.18055352 -8.875 13.6875 Z " fill="#293183" transform="translate(550,834)"/>
<path d="M0 0 C5.3632804 3.27057184 8.80167921 8.23583346 10.375 14.3125 C11.10248669 20.88937287 11.00878937 27.59018717 7.375 33.3125 C2.72510967 38.50641723 -1.86646955 41.87844486 -8.9375 42.5234375 C-15.67548263 42.79049169 -21.4052137 42.13219451 -26.60546875 37.578125 C-32.2237679 31.60071807 -34.0870114 25.72587937 -33.87890625 17.58203125 C-33.22004171 11.69279587 -30.88479235 6.45716282 -26.625 2.3125 C-19.34311195 -3.31022368 -8.26147562 -3.79037739 0 0 Z M-19.625 14.3125 C-21.24376208 17.55002415 -21.19632566 20.81313034 -20.625 24.3125 C-18.80551546 27.97499689 -16.52197583 29.99482106 -12.625 31.375 C-9.00110568 31.2995022 -7.43411939 30.57540173 -4.625 28.3125 C-2.07674481 24.12480791 -1.90898276 20.09447231 -2.625 15.3125 C-4.41893668 12.44220131 -5.60763276 10.82118362 -8.625 9.3125 C-14.1923546 8.57018605 -16.09878523 10.08104227 -19.625 14.3125 Z " fill="#293183" transform="translate(207.625,835.6875)"/>
<path d="M0 0 C1.20269531 -0.02578125 2.40539062 -0.0515625 3.64453125 -0.078125 C10.04795247 0.51491511 14.06542444 3.45947976 18.1875 8.25 C21.99788099 14.91816673 23.47665817 21.21762352 21.5390625 28.78125 C18.96974834 36.07195343 15.30154089 40.23869112 8.375 43.625 C1.17322728 45.0371123 -6.40136714 45.25861723 -12.8125 41.25 C-17.73309037 36.76614842 -21.33662135 32.21196647 -22.1484375 25.453125 C-22.238238 18.66420727 -21.8486964 12.90738331 -17.8125 7.25 C-12.24005872 1.93543829 -7.71564927 0.09860255 0 0 Z M-7.8125 15.25 C-9.55256584 18.73013169 -9.25937054 22.44521656 -8.8125 26.25 C-7.45873538 29.82399109 -7.45873538 29.82399109 -4.8125 32.25 C-1.46232715 33.66909682 -1.46232715 33.66909682 2.1875 33.25 C5.71519223 31.30504469 7.89299063 29.1335281 9.1875 25.25 C9.72506448 19.55181648 8.78879241 16.69865533 5.1875 12.25 C-0.1106842 9.6009079 -3.8209938 11.37253683 -7.8125 15.25 Z " fill="#293183" transform="translate(53.8125,833.75)"/>
<path d="M0 0 C4.62 0 9.24 0 14 0 C17.37201218 6.55669035 20.37607492 13.1103643 23 20 C26.14823068 16.31899182 27.82051175 12.16217266 29.6875 7.75 C30.16799805 6.63238281 30.16799805 6.63238281 30.65820312 5.4921875 C31.44359663 3.66351009 32.22245338 1.83202764 33 0 C37.62 0 42.24 0 47 0 C46.1075075 4.4624625 44.78757282 7.86596839 42.7890625 11.86328125 C42.4647374 12.52450485 42.14041229 13.18572845 41.80625916 13.86698914 C41.11088724 15.28384804 40.41303171 16.69949026 39.71292114 18.11401367 C37.88095164 21.81608337 36.06704794 25.52696228 34.25390625 29.23828125 C33.8912114 29.97998566 33.52851654 30.72169006 33.15483093 31.48587036 C29.3566899 39.27675616 25.74716336 47.14911604 22.18798828 55.05200195 C21.77661621 55.96296631 21.36524414 56.87393066 20.94140625 57.8125 C20.58763916 58.60269531 20.23387207 59.39289062 19.86938477 60.20703125 C19 62 19 62 18 63 C15.64686445 63.07271741 13.29166332 63.08370868 10.9375 63.0625 C9.64714844 63.05347656 8.35679687 63.04445313 7.02734375 63.03515625 C6.02832031 63.02355469 5.02929688 63.01195312 4 63 C5.24762119 60.16559845 6.49802665 57.33247871 7.75 54.5 C8.09804688 53.70851563 8.44609375 52.91703125 8.8046875 52.1015625 C9.15273438 51.31523438 9.50078125 50.52890625 9.859375 49.71875 C10.20806641 48.92855469 10.55675781 48.13835938 10.91601562 47.32421875 C12.25057156 44.46273846 13.77459302 41.72468804 15.37207031 39.00195312 C17.06282758 33.61151395 14.06212712 28.58902404 11.62109375 23.88671875 C11.28956802 23.23169876 10.9580423 22.57667877 10.61647034 21.90180969 C9.56436563 19.8264274 8.50143528 17.75683846 7.4375 15.6875 C6.37215077 13.59928112 5.30907108 11.50993535 4.24781799 9.41963196 C3.58850949 8.12275791 2.92642047 6.82729306 2.26133728 5.53337097 C0 1.10954536 0 1.10954536 0 0 Z " fill="#293183" transform="translate(570,835)"/>
<path d="M0 0 C-2.32593418 2.32593418 -3.00997232 2.33013284 -6.17871094 2.66674805 C-7.05294205 2.76441971 -7.92717316 2.86209137 -8.82789612 2.96272278 C-10.26660316 3.11072578 -10.26660316 3.11072578 -11.734375 3.26171875 C-13.81341585 3.49183805 -15.89243506 3.72215298 -17.97143555 3.95263672 C-19.62675797 4.13146393 -19.62675797 4.13146393 -21.31552124 4.31390381 C-70.10812761 9.62147249 -118.07498184 17.56337594 -165.6875 29.5 C-166.75092621 29.76323059 -167.81435242 30.02646118 -168.91000366 30.29766846 C-204.88114978 39.18110335 -204.88114978 39.18110335 -233 62 C-233.33 61.34 -233.66 60.68 -234 60 C-219.75115809 35.86078548 -188.09258763 26.37210393 -162.4609375 19.47265625 C-114.55923641 7.29439382 -63.99165648 3.48026668 -14.8125 0.48046875 C-14.00530518 0.43075424 -13.19811035 0.38103973 -12.36645508 0.32981873 C-8.23728042 0.08801797 -4.13859266 -0.05074231 0 0 Z " fill="#EA5C0C" transform="translate(912,308)"/>
<path d="M0 0 C15.18 0 30.36 0 46 0 C44.54714829 4.35855514 43.22970034 7.70738931 41.0859375 11.65625 C40.4971582 12.74768311 39.90837891 13.83911621 39.30175781 14.96362305 C38.65972924 16.1425374 38.01747088 17.32132663 37.375 18.5 C36.02178702 20.99520109 34.67107976 23.49175554 33.3203125 25.98828125 C32.97037231 26.63384476 32.62043213 27.27940826 32.2598877 27.9445343 C29.65003403 32.76853431 27.09386009 37.6189598 24.5546875 42.48046875 C23.47169111 44.54505399 22.38795937 46.60925159 21.30401611 48.67333984 C20.60248195 50.01392861 19.90418436 51.35621616 19.20916748 52.70019531 C18.23661423 54.57953429 17.25245728 56.45234838 16.265625 58.32421875 C15.70649414 59.39760498 15.14736328 60.47099121 14.57128906 61.5769043 C13 64 13 64 10 65 C7.73828125 64.00390625 7.73828125 64.00390625 5.3125 62.5625 C4.50425781 62.08941406 3.69601562 61.61632812 2.86328125 61.12890625 C2.24839844 60.75636719 1.63351562 60.38382813 1 60 C2.41450143 55.30671303 4.38188527 51.09828069 6.703125 46.80078125 C7.24353424 45.78723824 7.24353424 45.78723824 7.79486084 44.7532196 C8.94222857 42.6039563 10.09603909 40.45822916 11.25 38.3125 C12.00953141 36.89149876 12.76864954 35.47027654 13.52734375 34.04882812 C17.64542578 26.34389554 21.81637158 18.66998544 26 11 C17.42 11 8.84 11 0 11 C0 7.37 0 3.74 0 0 Z " fill="#293183" transform="translate(318,813)"/>
<path d="M0 0 C1.01964844 -0.00773438 2.03929687 -0.01546875 3.08984375 -0.0234375 C6.56569242 0.44244498 8.3272026 1.18120817 11.0625 3.375 C13.97313594 8.05474319 14.47249472 12.01158958 14.35546875 17.3984375 C14.35122391 18.14461334 14.34697906 18.89078918 14.34260559 19.65957642 C14.32592382 22.02343098 14.28829339 24.38640676 14.25 26.75 C14.23493949 28.3606647 14.22125348 29.97134287 14.20898438 31.58203125 C14.17605504 35.51335515 14.12434762 39.44402901 14.0625 43.375 C10.1025 43.375 6.1425 43.375 2.0625 43.375 C2.04268066 42.51221436 2.02286133 41.64942871 2.00244141 40.76049805 C1.92430356 37.55663044 1.83760918 34.35314106 1.74511719 31.1496582 C1.7068565 29.76368093 1.67199844 28.37760535 1.640625 26.99145508 C1.59491301 24.9979836 1.53591075 23.00483086 1.4765625 21.01171875 C1.42943115 19.21287231 1.42943115 19.21287231 1.38134766 17.37768555 C1.27820506 14.19617294 1.27820506 14.19617294 -0.9375 11.375 C-3.9375 10.875 -3.9375 10.875 -6.9375 11.375 C-10.9818788 17.44156819 -10.23388164 25.16514407 -10.5 32.25 C-10.54318359 33.31992187 -10.58636719 34.38984375 -10.63085938 35.4921875 C-10.73642743 38.11965903 -10.83741795 40.74731378 -10.9375 43.375 C-14.8975 43.375 -18.8575 43.375 -22.9375 43.375 C-22.9375 29.515 -22.9375 15.655 -22.9375 1.375 C-18.9775 1.375 -15.0175 1.375 -10.9375 1.375 C-10.6075 2.035 -10.2775 2.695 -9.9375 3.375 C-9.13119141 2.64410156 -9.13119141 2.64410156 -8.30859375 1.8984375 C-5.34438138 -0.00608115 -3.49996464 -0.02648145 0 0 Z " fill="#293183" transform="translate(154.9375,833.625)"/>
<path d="M0 0 C12.87 0 25.74 0 39 0 C39 3.63 39 7.26 39 11 C34.71 11 30.42 11 26 11 C26 28.49 26 45.98 26 64 C21.71 64 17.42 64 13 64 C13 46.51 13 29.02 13 11 C8.71 11 4.42 11 0 11 C0 7.37 0 3.74 0 0 Z " fill="#293183" transform="translate(1,813)"/>
<path d="M0 0 C3.96 0 7.92 0 12 0 C12 4.62 12 9.24 12 14 C14.31 14 16.62 14 19 14 C19 17.63 19 21.26 19 25 C16.69 25 14.38 25 12 25 C12 35.23 12 45.46 12 56 C8.04 56 4.08 56 0 56 C0 45.77 0 35.54 0 25 C-1.32 25 -2.64 25 -4 25 C-4 21.37 -4 17.74 -4 14 C-2.68 14 -1.36 14 0 14 C0 9.38 0 4.76 0 0 Z " fill="#293183" transform="translate(369,821)"/>
<path d="M0 0 C1.60875 0.020625 3.2175 0.04125 4.875 0.0625 C4.545 4.0225 4.215 7.9825 3.875 12.0625 C2.451875 12.02125 1.02875 11.98 -0.4375 11.9375 C-4.10560033 11.83117825 -4.92119983 11.92663322 -8.125 14.0625 C-9.18336661 17.23759982 -9.32743789 19.70532383 -9.44140625 23.04296875 C-9.48330078 24.20634766 -9.52519531 25.36972656 -9.56835938 26.56835938 C-9.60767578 27.78330078 -9.64699219 28.99824219 -9.6875 30.25 C-9.73068359 31.47654297 -9.77386719 32.70308594 -9.81835938 33.96679688 C-9.92453014 36.99856192 -10.02527764 40.030516 -10.125 43.0625 C-14.415 43.0625 -18.705 43.0625 -23.125 43.0625 C-23.125 29.2025 -23.125 15.3425 -23.125 1.0625 C-17.79166667 1.0625 -12.45833333 1.0625 -7.125 1.0625 C-4.60024538 -0.19987731 -2.81299534 -0.03606404 0 0 Z " fill="#293183" transform="translate(103.125,833.9375)"/>
<path d="M0 0 C3.62011046 2.33296007 5.89022378 4.96794755 7.8125 8.8125 C8.37600726 13.43141196 8.2547879 16.91091312 6.1875 21.125 C3.18472432 24.52287774 0.48649648 27.33652863 -4.140625 28.16015625 C-8.83768307 28.36632483 -12.20450604 27.43765511 -16.1875 24.8125 C-19.59140898 21.1325984 -21.0565782 18.54721382 -21.4375 13.5 C-21.07648229 8.1749888 -19.60218242 5.12108123 -15.6875 1.5 C-10.63351329 -1.91144103 -5.67430588 -2.11395709 0 0 Z " fill="#293183" transform="translate(1235.1875,422.1875)"/>
<path d="M0 0 C4.30742759 2.23654894 7.64038378 4.73453991 10 9 C10.79562414 14.30957333 10.64704364 18.60636754 8.375 23.5 C4.69599719 27.37263454 1.32438096 29.13113522 -4 29.375 C-7.94734064 29.19420577 -10.69243555 28.25515758 -14 26 C-17.16458887 22.15117569 -18.90172466 19.01204228 -19 14 C-18.07539954 9.31153924 -16.91183938 5.91183938 -13.5 2.5 C-9.15147764 -0.10911342 -4.9879182 -0.68146131 0 0 Z " fill="#293183" transform="translate(507,421)"/>
<path d="M0 0 C3.96 0 7.92 0 12 0 C12 13.86 12 27.72 12 42 C8.04 42 4.08 42 0 42 C0 28.14 0 14.28 0 0 Z " fill="#293183" transform="translate(112,835)"/>
<path d="M0 0 C1.85772162 0.08984301 3.71247985 0.24611861 5.5625 0.4375 C7.08037109 0.59025391 7.08037109 0.59025391 8.62890625 0.74609375 C9.80259766 0.87177734 9.80259766 0.87177734 11 1 C9.08321013 7.43595765 6.54251139 13.18460049 3.3125 19.0625 C2.68891602 20.21782227 2.68891602 20.21782227 2.05273438 21.39648438 C1.0415352 23.267784 0.02168617 25.13440534 -1 27 C-3.64 26.67 -6.28 26.34 -9 26 C-8.33946516 20.39462794 -6.47721446 15.43227973 -4.5 10.1875 C-4.01853516 8.88135742 -4.01853516 8.88135742 -3.52734375 7.54882812 C-1.13943129 1.13943129 -1.13943129 1.13943129 0 0 Z " fill="#293183" transform="translate(230,863)"/>
<path d="M0 0 C2.375 1.5625 2.375 1.5625 4 4 C4.42213381 7.43737531 4.60856522 9.82090489 3 12.9375 C-0.24370507 14.66071832 -3.4161041 14.52265149 -7 14 C-9 13 -9 13 -10 11 C-10.45429103 8.23975072 -10.51084843 5.7551376 -10 3 C-7.21052771 -0.43319666 -4.246332 -0.61925675 0 0 Z " fill="#293183" transform="translate(121,811)"/> -->
</svg>
